<svg width="20" height="20" viewBox="0 0 24 24" fill="none" xmlns="http://www.w3.org/2000/svg">
<path d="M18 12C18 10.4087 17.3679 8.88258 16.2426 7.75736C15.1174 6.63214 13.5913 6 12 6C10.4087 6 8.88258 6.63214 7.75736 7.75736C6.63214 8.88258 6 10.4087 6 12C6 15.314 7 17.5 9 20" stroke="currentColor" stroke-width="1.5" stroke-linecap="round" stroke-linejoin="round"/>
<path d="M15 21C9.5 17.5 9 13.657 9 12C9 11.2044 9.31607 10.4413 9.87867 9.87868C10.4413 9.31607 11.2043 9 12 9C12.7956 9 13.5587 9.31607 14.1213 9.87868C14.6839 10.4413 15 11.2044 15 12C15 12.7957 15.3161 13.5587 15.8787 14.1213C16.4413 14.6839 17.2043 15 18 15C18.7956 15 19.5587 14.6839 20.1213 14.1213C20.6839 13.5587 21 12.7957 21 12C20.9987 10.734 20.7304 9.48243 20.2125 8.32717C19.6945 7.17192 18.9387 6.13893 17.9943 5.2957C17.05 4.45247 15.9383 3.81797 14.732 3.43366C13.5257 3.04934 12.2519 2.92385 10.9938 3.0654C9.7357 3.20694 8.52161 3.61233 7.43086 4.25507C6.34011 4.89782 5.39724 5.76346 4.66385 6.79545C3.93045 7.82743 3.42304 9.00254 3.17476 10.244C2.92648 11.4855 2.94292 12.7653 3.223 14" stroke="currentColor" stroke-width="1.5" stroke-linecap="round" stroke-linejoin="round"/>
<path d="M12 12C12.5 17 17.5 19 17.5 19" stroke="currentColor" stroke-width="1.5" stroke-linecap="round" stroke-linejoin="round"/>
</svg>
