<svg width="17" height="13" viewBox="0 0 17 13" fill="none" xmlns="http://www.w3.org/2000/svg">
<path d="M9.99289 1.12422C9.8145 1.29541 9.71429 1.52757 9.71429 1.76963C9.71429 2.0117 9.8145 2.24386 9.99289 2.41505L14.7031 6.93387L9.99289 11.4527C9.81956 11.6249 9.72364 11.8555 9.72581 12.0948C9.72798 12.3342 9.82805 12.5632 10.0045 12.7324C10.1809 12.9017 10.4196 12.9977 10.6691 12.9998C10.9186 13.0018 11.1589 12.9098 11.3384 12.7435L16.7214 7.57929C16.8998 7.4081 17 7.17594 17 6.93387C17 6.69181 16.8998 6.45965 16.7214 6.28846L11.3384 1.12422C11.16 0.953075 10.918 0.856933 10.6656 0.856933C10.4133 0.856933 10.1713 0.953075 9.99289 1.12422Z" fill="currentColor"/>
<path d="M0.278536 1.12422C0.100145 1.29541 -6.91707e-05 1.52757 -6.91813e-05 1.76963C-6.91919e-05 2.0117 0.100145 2.24386 0.278536 2.41505L4.98877 6.93387L0.278535 11.4527C0.1052 11.6249 0.00928831 11.8555 0.0114565 12.0948C0.0136242 12.3342 0.113699 12.5632 0.290127 12.7324C0.466554 12.9017 0.705218 12.9977 0.954715 12.9998C1.20421 13.0018 1.44458 12.9098 1.62405 12.7435L7.00704 7.57929C7.18543 7.4081 7.28564 7.17594 7.28564 6.93387C7.28564 6.69181 7.18543 6.45965 7.00704 6.28846L1.62405 1.12422C1.4456 0.953075 1.20361 0.856933 0.951291 0.856933C0.69897 0.856933 0.45698 0.953075 0.278536 1.12422Z" fill="currentColor"/>
</svg>
