<svg width="17" height="17" viewBox="0 0 17 17" fill="none" xmlns="http://www.w3.org/2000/svg">
<path d="M1 8.5H1.83333M8.5 1V1.83333M15.1667 8.5H16M8.5 15.1667V16M3.16667 3.16667L3.75 3.75M13.8333 3.16667L13.25 3.75M13.25 13.25L13.8333 13.8333M3.75 13.25L3.16667 13.8333M5.16667 8.5C5.16667 9.38405 5.51786 10.2319 6.14298 10.857C6.7681 11.4821 7.61594 11.8333 8.5 11.8333C9.38405 11.8333 10.2319 11.4821 10.857 10.857C11.4821 10.2319 11.8333 9.38405 11.8333 8.5C11.8333 7.61594 11.4821 6.7681 10.857 6.14298C10.2319 5.51786 9.38405 5.16667 8.5 5.16667C7.61594 5.16667 6.7681 5.51786 6.14298 6.14298C5.51786 6.7681 5.16667 7.61594 5.16667 8.5Z" stroke="white" stroke-width="1.66667" stroke-linecap="round" stroke-linejoin="round"/>
</svg>
