<svg width="34" height="34" viewBox="0 0 34 34" fill="none" xmlns="http://www.w3.org/2000/svg">
<path d="M11.4996 8H18.2478C19.2113 8.0003 20.1562 8.26585 20.979 8.76756C21.8017 9.26927 22.4705 9.98778 22.9122 10.8444C23.3539 11.701 23.5513 12.6627 23.483 13.6241C23.4146 14.5855 23.083 15.5095 22.5246 16.295C23.4932 16.8977 24.2391 17.7998 24.6492 18.8646C25.0593 19.9294 25.1113 21.0988 24.7974 22.1958C24.4835 23.2929 23.8207 24.2576 22.9094 24.9441C21.9982 25.6305 20.8881 26.0012 19.7474 26H11.4996C11.1019 26 10.7204 25.842 10.4392 25.5607C10.158 25.2794 10 24.8978 10 24.5V9.5C10 9.10218 10.158 8.72064 10.4392 8.43934C10.7204 8.15804 11.1019 8 11.4996 8ZM12.9992 18.5V23H19.7474C20.3439 23 20.9161 22.7629 21.3379 22.341C21.7598 21.919 21.9967 21.3467 21.9967 20.75C21.9967 20.1533 21.7598 19.581 21.3379 19.159C20.9161 18.7371 20.3439 18.5 19.7474 18.5H12.9992ZM18.2478 15.5C18.8443 15.5 19.4165 15.2629 19.8383 14.841C20.2602 14.419 20.4971 13.8467 20.4971 13.25C20.4971 12.6533 20.2602 12.081 19.8383 11.659C19.4165 11.2371 18.8443 11 18.2478 11H12.9992V15.5H18.2478Z" fill="currentColor"/>
</svg>
