<svg width="9" height="6" viewBox="0 0 9 6" fill="none" xmlns="http://www.w3.org/2000/svg">
<path d="M7.7206 0.2206L4.50307 3.4456L1.28557 0.2206C1.14434 0.0793001 0.95279 0 0.75307 0C0.55334 0 0.3618 0.0793001 0.22057 0.2206C0.0793401 0.3618 0 0.5533 0 0.7531C0 0.9528 0.0793401 1.1443 0.22057 1.2856L3.97057 5.0356C4.04029 5.1059 4.12324 5.1617 4.21464 5.1997C4.30603 5.2378 4.40406 5.2574 4.50307 5.2574C4.60208 5.2574 4.70011 5.2378 4.7915 5.1997C4.8829 5.1617 4.96585 5.1059 5.03557 5.0356L8.7856 1.2856C8.8555 1.2156 8.911 1.1326 8.9488 1.0413C8.9867 0.9499 9.0061 0.852 9.0061 0.7531C9.0061 0.6542 8.9867 0.5562 8.9488 0.4649C8.911 0.3735 8.8555 0.2905 8.7856 0.2206C8.7156 0.1506 8.6326 0.0951996 8.5413 0.0572996C8.4499 0.0194996 8.352 0 8.2531 0C8.1542 0 8.0562 0.0194996 7.9649 0.0572996C7.8735 0.0951996 7.7905 0.1506 7.7206 0.2206Z" fill="currentColor"/>
</svg>
