<svg width="20" height="20" viewBox="0 0 20 20" fill="none" xmlns="http://www.w3.org/2000/svg">
<path fill-rule="evenodd" clip-rule="evenodd" d="M16.8392 5.66086C16.9954 5.81713 17.0832 6.02906 17.0832 6.25003C17.0832 6.471 16.9954 6.68292 16.8392 6.83919L8.92251 14.7559C8.76624 14.9121 8.55432 14.9998 8.33335 14.9998C8.11238 14.9998 7.90045 14.9121 7.74418 14.7559L3.99418 11.0059C3.84238 10.8487 3.75839 10.6382 3.76029 10.4197C3.76218 10.2012 3.84983 9.99218 4.00433 9.83768C4.15884 9.68317 4.36785 9.59553 4.58635 9.59363C4.80484 9.59173 5.01535 9.67573 5.17251 9.82753L8.33335 12.9884L15.6608 5.66086C15.8171 5.50463 16.029 5.41687 16.25 5.41687C16.471 5.41687 16.6829 5.50463 16.8392 5.66086Z" fill="currentColor"/>
</svg>
