<svg width="34" height="34" viewBox="0 0 34 34" fill="none" xmlns="http://www.w3.org/2000/svg">
<path d="M10.3991 16.625L14.2741 20.5C14.4574 20.6833 14.5491 20.9167 14.5491 21.2C14.5491 21.4833 14.4574 21.7167 14.2741 21.9C14.0907 22.0833 13.8574 22.175 13.5741 22.175C13.2907 22.175 13.0574 22.0833 12.8741 21.9L8.27406 17.3C8.17406 17.2 8.10306 17.0917 8.06106 16.975C8.01906 16.8583 7.99873 16.7333 8.00006 16.6C8.00139 16.4667 8.02239 16.3417 8.06306 16.225C8.10373 16.1083 8.17439 16 8.27506 15.9L12.8751 11.3C13.0751 11.1 13.3127 11 13.5881 11C13.8634 11 14.1007 11.1 14.3001 11.3C14.4994 11.5 14.5994 11.7377 14.6001 12.013C14.6007 12.2883 14.5007 12.5257 14.3001 12.725L10.3991 16.625ZM24.7491 16.575L20.8741 12.7C20.6907 12.5167 20.5991 12.2833 20.5991 12C20.5991 11.7167 20.6907 11.4833 20.8741 11.3C21.0574 11.1167 21.2907 11.025 21.5741 11.025C21.8574 11.025 22.0907 11.1167 22.2741 11.3L26.8741 15.9C26.9741 16 27.0451 16.1083 27.0871 16.225C27.1291 16.3417 27.1497 16.4667 27.1491 16.6C27.1484 16.7333 27.1277 16.8583 27.0871 16.975C27.0464 17.0917 26.9754 17.2 26.8741 17.3L22.2741 21.9C22.0741 22.1 21.8407 22.196 21.5741 22.188C21.3074 22.18 21.0741 22.0757 20.8741 21.875C20.6741 21.6743 20.5741 21.437 20.5741 21.163C20.5741 20.889 20.6741 20.6513 20.8741 20.45L24.7491 16.575Z" fill="currentColor"/>
</svg>
