<svg width="26" height="27" viewBox="0 0 26 27" fill="none" xmlns="http://www.w3.org/2000/svg">
<path d="M1.58334 25.4167L5.45834 21.5417M8.68751 14.4375L11.9167 11.2083M12.5625 18.3125L15.7917 15.0833M22.25 0.875L17.0833 6.04167H24.8333L19.6667 11.2083M7.13751 23.2208C7.42551 23.5098 7.76773 23.7391 8.14454 23.8956C8.52135 24.0521 8.92534 24.1326 9.33334 24.1326C9.74135 24.1326 10.1453 24.0521 10.5221 23.8956C10.899 23.7391 11.2412 23.5098 11.5292 23.2208L14.5 20.25L6.75001 12.5L3.77918 15.4708C3.49017 15.7588 3.26087 16.1011 3.1044 16.4779C2.94794 16.8547 2.8674 17.2587 2.8674 17.6667C2.8674 18.0747 2.94794 18.4787 3.1044 18.8555C3.26087 19.2323 3.49017 19.5745 3.77918 19.8625L7.13751 23.2208Z" stroke="currentColor" stroke-width="1.5" stroke-linecap="round" stroke-linejoin="round"/>
</svg>
