<svg viewBox="0 0 26 28" fill="none" xmlns="http://www.w3.org/2000/svg">
<path d="M20.2259 10.3288L19.5465 11.5275C18.9071 12.6551 18.5868 13.2183 17.8906 13.2673C17.1931 13.3164 16.8986 12.9134 16.3083 12.1074C15.6521 11.2046 15.2313 10.1525 15.0838 9.04618C14.9456 8.01414 14.8771 7.49877 14.7092 7.24431C14.4431 6.84002 13.9058 6.61785 13.5054 6.38277C12.4501 5.76277 11.9218 5.45277 11.7836 4.92447C11.6441 4.39877 11.9489 3.86143 12.5586 2.78677C13.1682 1.7121 13.4731 1.17477 13.991 1.03397C14.5077 0.891891 15.0373 1.20318 16.0926 1.82318C16.493 2.05956 16.9502 2.41993 17.4282 2.45352C17.7278 2.47418 18.2019 2.27656 19.1487 1.8826C20.1644 1.45736 21.2727 1.30164 22.3662 1.43052C23.3479 1.54806 23.8387 1.60747 24.1435 2.24427C24.451 2.88364 24.1306 3.44681 23.4912 4.57443L22.8118 5.77052M20.2259 10.3288L20.7865 10.6582C21.0807 10.8305 21.4064 10.9424 21.7445 10.9872C22.0825 11.0321 22.4261 11.009 22.7551 10.9194C23.0841 10.8298 23.3919 10.6754 23.6605 10.4653C23.929 10.2552 24.153 9.99364 24.3192 9.69589C24.6632 9.09179 24.7567 8.37692 24.5797 7.70466C24.4027 7.03239 23.9693 6.45627 23.3724 6.09989L22.8118 5.77052M20.2259 10.3288L22.8118 5.77052M5.29166 13.9171L14.3333 7.45872M6.58333 26.8337H15.625M5.29166 17.7921L11.75 26.8337M6.58333 15.2087C6.58333 15.8939 6.31116 16.5509 5.82669 17.0354C5.34222 17.5199 4.68514 17.7921 4 17.7921C3.31485 17.7921 2.65777 17.5199 2.1733 17.0354C1.68884 16.5509 1.41666 15.8939 1.41666 15.2087C1.41666 14.5236 1.68884 13.8665 2.1733 13.382C2.65777 12.8976 3.31485 12.6254 4 12.6254C4.68514 12.6254 5.34222 12.8976 5.82669 13.382C6.31116 13.8665 6.58333 14.5236 6.58333 15.2087Z" stroke="currentColor" stroke-width="1.3" stroke-linecap="round" stroke-linejoin="round"/>
</svg>
