<svg width="18" height="18" viewBox="0 0 18 18" fill="none" xmlns="http://www.w3.org/2000/svg">
<path d="M9 6.375C13.1421 6.375 16.5 5.36764 16.5 4.125C16.5 2.88236 13.1421 1.875 9 1.875C4.85786 1.875 1.5 2.88236 1.5 4.125C1.5 5.36764 4.85786 6.375 9 6.375Z" stroke="white" stroke-width="1.5" stroke-linecap="round" stroke-linejoin="round"/>
<path d="M4.03875 5.8125C2.4825 6.225 1.5 6.828 1.5 7.5C1.5 8.74275 4.85775 9.75 9 9.75C13.1422 9.75 16.5 8.74275 16.5 7.5C16.5 6.828 15.5179 6.225 13.9612 5.8125" stroke="white" stroke-width="1.5" stroke-linecap="round" stroke-linejoin="round"/>
<path d="M4.03875 9.1875C2.4825 9.6 1.5 10.203 1.5 10.875C1.5 12.1177 4.85775 13.125 9 13.125C13.1422 13.125 16.5 12.1177 16.5 10.875C16.5 10.203 15.5179 9.6 13.9612 9.1875" stroke="white" stroke-width="1.5" stroke-linecap="round" stroke-linejoin="round"/>
<path d="M4.03875 12.5625C2.4825 12.975 1.5 13.578 1.5 14.25C1.5 15.4927 4.85775 16.5 9 16.5C13.1422 16.5 16.5 15.4927 16.5 14.25C16.5 13.578 15.5179 12.975 13.9612 12.5625" stroke="white" stroke-width="1.5" stroke-linecap="round" stroke-linejoin="round"/>
</svg>
