<svg width="20" height="20" viewBox="0 0 20 20" fill="none" xmlns="http://www.w3.org/2000/svg">
<path d="M5.83334 3.33335C5.83334 2.89133 6.00893 2.4674 6.32149 2.15484C6.63405 1.84228 7.05798 1.66669 7.5 1.66669H12.5C12.942 1.66669 13.366 1.84228 13.6785 2.15484C13.9911 2.4674 14.1667 2.89133 14.1667 3.33335V5.00002H17.5C17.721 5.00002 17.933 5.08782 18.0893 5.2441C18.2455 5.40038 18.3333 5.61234 18.3333 5.83335C18.3333 6.05437 18.2455 6.26633 18.0893 6.42261C17.933 6.57889 17.721 6.66669 17.5 6.66669H16.6092L15.8867 16.785C15.8567 17.2055 15.6686 17.599 15.3601 17.8863C15.0516 18.1736 14.6457 18.3334 14.2242 18.3334H5.775C5.35345 18.3334 4.94756 18.1736 4.63908 17.8863C4.33059 17.599 4.14244 17.2055 4.1125 16.785L3.39167 6.66669H2.50001C2.27899 6.66669 2.06703 6.57889 1.91075 6.42261C1.75447 6.26633 1.66667 6.05437 1.66667 5.83335C1.66667 5.61234 1.75447 5.40038 1.91075 5.2441C2.06703 5.08782 2.27899 5.00002 2.50001 5.00002H5.83334V3.33335ZM7.5 5.00002H12.5V3.33335H7.5V5.00002ZM5.06167 6.66669L5.77584 16.6667H14.225L14.9392 6.66669H5.06167ZM8.33334 8.33335C8.55435 8.33335 8.76631 8.42115 8.92259 8.57743C9.07887 8.73371 9.16667 8.94567 9.16667 9.16669V14.1667C9.16667 14.3877 9.07887 14.5997 8.92259 14.7559C8.76631 14.9122 8.55435 15 8.33334 15C8.11232 15 7.90036 14.9122 7.74408 14.7559C7.5878 14.5997 7.5 14.3877 7.5 14.1667V9.16669C7.5 8.94567 7.5878 8.73371 7.74408 8.57743C7.90036 8.42115 8.11232 8.33335 8.33334 8.33335ZM11.6667 8.33335C11.8877 8.33335 12.0996 8.42115 12.2559 8.57743C12.4122 8.73371 12.5 8.94567 12.5 9.16669V14.1667C12.5 14.3877 12.4122 14.5997 12.2559 14.7559C12.0996 14.9122 11.8877 15 11.6667 15C11.4457 15 11.2337 14.9122 11.0774 14.7559C10.9211 14.5997 10.8333 14.3877 10.8333 14.1667V9.16669C10.8333 8.94567 10.9211 8.73371 11.0774 8.57743C11.2337 8.42115 11.4457 8.33335 11.6667 8.33335Z" fill="white"/>
</svg>
