<svg width="18" height="18" viewBox="0 0 18 18" fill="none" xmlns="http://www.w3.org/2000/svg">
<path d="M4.83334 2.33335C4.83334 1.89133 5.00893 1.4674 5.32149 1.15484C5.63405 0.842282 6.05798 0.666687 6.5 0.666687H11.5C11.942 0.666687 12.366 0.842282 12.6785 1.15484C12.9911 1.4674 13.1667 1.89133 13.1667 2.33335V4.00002H16.5C16.721 4.00002 16.933 4.08782 17.0893 4.2441C17.2455 4.40038 17.3333 4.61234 17.3333 4.83335C17.3333 5.05437 17.2455 5.26633 17.0893 5.42261C16.933 5.57889 16.721 5.66669 16.5 5.66669H15.6092L14.8867 15.785C14.8567 16.2055 14.6686 16.599 14.3601 16.8863C14.0516 17.1736 13.6457 17.3334 13.2242 17.3334H4.775C4.35345 17.3334 3.94756 17.1736 3.63908 16.8863C3.33059 16.599 3.14244 16.2055 3.1125 15.785L2.39167 5.66669H1.50001C1.27899 5.66669 1.06703 5.57889 0.910749 5.42261C0.754469 5.26633 0.666672 5.05437 0.666672 4.83335C0.666672 4.61234 0.754469 4.40038 0.910749 4.2441C1.06703 4.08782 1.27899 4.00002 1.50001 4.00002H4.83334V2.33335ZM6.5 4.00002H11.5V2.33335H6.5V4.00002ZM4.06167 5.66669L4.77584 15.6667H13.225L13.9392 5.66669H4.06167ZM7.33334 7.33335C7.55435 7.33335 7.76631 7.42115 7.92259 7.57743C8.07887 7.73371 8.16667 7.94567 8.16667 8.16669V13.1667C8.16667 13.3877 8.07887 13.5997 7.92259 13.7559C7.76631 13.9122 7.55435 14 7.33334 14C7.11232 14 6.90036 13.9122 6.74408 13.7559C6.5878 13.5997 6.5 13.3877 6.5 13.1667V8.16669C6.5 7.94567 6.5878 7.73371 6.74408 7.57743C6.90036 7.42115 7.11232 7.33335 7.33334 7.33335ZM10.6667 7.33335C10.8877 7.33335 11.0996 7.42115 11.2559 7.57743C11.4122 7.73371 11.5 7.94567 11.5 8.16669V13.1667C11.5 13.3877 11.4122 13.5997 11.2559 13.7559C11.0996 13.9122 10.8877 14 10.6667 14C10.4457 14 10.2337 13.9122 10.0774 13.7559C9.92114 13.5997 9.83334 13.3877 9.83334 13.1667V8.16669C9.83334 7.94567 9.92114 7.73371 10.0774 7.57743C10.2337 7.42115 10.4457 7.33335 10.6667 7.33335Z" fill="currentColor"/>
</svg>
