<svg width="27" height="27" viewBox="0 0 27 27" fill="none" xmlns="http://www.w3.org/2000/svg">
<path d="M16.4531 8.01562H16.4616V8.02406H16.4531V8.01562Z" stroke="currentColor" stroke-width="1.6875" stroke-linecap="round" stroke-linejoin="round"/>
<path d="M16.875 8.01562C16.875 8.12751 16.8306 8.23482 16.7514 8.31394C16.6723 8.39305 16.565 8.4375 16.4531 8.4375C16.3412 8.4375 16.2339 8.39305 16.1548 8.31394C16.0757 8.23482 16.0312 8.12751 16.0312 8.01562C16.0312 7.90374 16.0757 7.79643 16.1548 7.71731C16.2339 7.6382 16.3412 7.59375 16.4531 7.59375C16.565 7.59375 16.6723 7.6382 16.7514 7.71731C16.8306 7.79643 16.875 7.90374 16.875 8.01562ZM16.4531 13.4916H16.4616V13.5H16.4531V13.4916Z" stroke="currentColor" stroke-width="1.6875" stroke-linecap="round" stroke-linejoin="round"/>
<path d="M16.875 13.4916C16.875 13.6035 16.8306 13.7108 16.7514 13.7899C16.6723 13.869 16.565 13.9135 16.4531 13.9135C16.3412 13.9135 16.2339 13.869 16.1548 13.7899C16.0757 13.7108 16.0312 13.6035 16.0312 13.4916C16.0312 13.3797 16.0757 13.2724 16.1548 13.1933C16.2339 13.1142 16.3412 13.0697 16.4531 13.0697C16.565 13.0697 16.6723 13.1142 16.7514 13.1933C16.8306 13.2724 16.875 13.3797 16.875 13.4916ZM16.4531 18.9844H16.4616V18.9928H16.4531V18.9844Z" stroke="currentColor" stroke-width="1.6875" stroke-linecap="round" stroke-linejoin="round"/>
<path d="M16.875 18.9844C16.875 19.0963 16.8306 19.2036 16.7514 19.2827C16.6723 19.3618 16.565 19.4062 16.4531 19.4062C16.3412 19.4062 16.2339 19.3618 16.1548 19.2827C16.0757 19.2036 16.0312 19.0963 16.0312 18.9844C16.0312 18.8725 16.0757 18.7652 16.1548 18.6861C16.2339 18.6069 16.3412 18.5625 16.4531 18.5625C16.565 18.5625 16.6723 18.6069 16.7514 18.6861C16.8306 18.7652 16.875 18.8725 16.875 18.9844ZM10.5469 8.01562H10.5553V8.02406H10.5469V8.01562Z" stroke="currentColor" stroke-width="1.6875" stroke-linecap="round" stroke-linejoin="round"/>
<path d="M10.9688 8.01562C10.9688 8.12751 10.9243 8.23482 10.8452 8.31394C10.7661 8.39305 10.6588 8.4375 10.5469 8.4375C10.435 8.4375 10.3277 8.39305 10.2486 8.31394C10.1694 8.23482 10.125 8.12751 10.125 8.01562C10.125 7.90374 10.1694 7.79643 10.2486 7.71731C10.3277 7.6382 10.435 7.59375 10.5469 7.59375C10.6588 7.59375 10.7661 7.6382 10.8452 7.71731C10.9243 7.79643 10.9688 7.90374 10.9688 8.01562ZM10.5469 13.4916H10.5553V13.5H10.5469V13.4916Z" stroke="currentColor" stroke-width="1.6875" stroke-linecap="round" stroke-linejoin="round"/>
<path d="M10.9688 13.4916C10.9688 13.6035 10.9243 13.7108 10.8452 13.7899C10.7661 13.869 10.6588 13.9135 10.5469 13.9135C10.435 13.9135 10.3277 13.869 10.2486 13.7899C10.1694 13.7108 10.125 13.6035 10.125 13.4916C10.125 13.3797 10.1694 13.2724 10.2486 13.1933C10.3277 13.1142 10.435 13.0697 10.5469 13.0697C10.6588 13.0697 10.7661 13.1142 10.8452 13.1933C10.9243 13.2724 10.9688 13.3797 10.9688 13.4916ZM10.5469 18.9844H10.5553V18.9928H10.5469V18.9844Z" stroke="currentColor" stroke-width="1.6875" stroke-linecap="round" stroke-linejoin="round"/>
<path d="M10.9688 18.9844C10.9688 19.0963 10.9243 19.2036 10.8452 19.2827C10.7661 19.3618 10.6588 19.4062 10.5469 19.4062C10.435 19.4062 10.3277 19.3618 10.2486 19.2827C10.1694 19.2036 10.125 19.0963 10.125 18.9844C10.125 18.8725 10.1694 18.7652 10.2486 18.6861C10.3277 18.6069 10.435 18.5625 10.5469 18.5625C10.6588 18.5625 10.7661 18.6069 10.8452 18.6861C10.9243 18.7652 10.9688 18.8725 10.9688 18.9844Z" stroke="currentColor" stroke-width="1.6875" stroke-linecap="round" stroke-linejoin="round"/>
</svg>
