<svg viewBox="0 0 19 19" fill="none" xmlns="http://www.w3.org/2000/svg">
<path d="M16.9605 2.03897C16.416 1.49456 15.6776 1.18872 14.9076 1.18872C14.1376 1.18872 13.3992 1.49456 12.8547 2.03897L2.58698 12.3085C2.28755 12.6077 2.08096 12.9871 1.99204 13.401L1.20057 17.0941C1.1797 17.1911 1.18347 17.2918 1.21152 17.3869C1.23958 17.4821 1.29104 17.5687 1.36119 17.6389C1.43135 17.709 1.51796 17.7605 1.61312 17.7885C1.70828 17.8166 1.80896 17.8203 1.90595 17.7995L5.59907 17.008C6.01296 16.9191 6.39233 16.7125 6.69157 16.4131L16.9605 6.14416C17.5047 5.59969 17.8104 4.86138 17.8104 4.09156C17.8104 3.32174 17.5047 2.58343 16.9605 2.03897ZM13.6949 2.87853C14.0195 2.5715 14.4511 2.40323 14.8979 2.40949C15.3447 2.41576 15.7715 2.59606 16.0874 2.91206C16.4033 3.22806 16.5835 3.65484 16.5897 4.10164C16.5958 4.54844 16.4274 4.98001 16.1203 5.30459L15.5859 5.83897L13.1599 3.4135L13.6949 2.87853ZM12.3197 4.25306L14.7458 6.67912L5.85261 15.5741C5.71499 15.7116 5.54056 15.8065 5.35029 15.8472L2.55314 16.4469L3.15282 13.6503C3.19355 13.4601 3.2884 13.2856 3.42595 13.148L12.3197 4.25306Z" fill="currentColor"/>
</svg>
