<svg width="13" height="8" viewBox="0 0 13 8" fill="none" xmlns="http://www.w3.org/2000/svg">
<path d="M12.7138 0.305919C12.5306 0.110039 12.282 -1.04356e-07 12.0229 -8.17002e-08C11.7637 -5.90443e-08 11.5152 0.110039 11.3319 0.305919L6.4941 5.47795L1.6563 0.30592C1.47197 0.115591 1.22509 0.0102762 0.96884 0.0126568C0.712586 0.0150374 0.467459 0.124923 0.286253 0.318648C0.105048 0.512372 0.00226361 0.774435 3.68604e-05 1.04839C-0.00218989 1.32235 0.0963198 1.58628 0.274349 1.78334L5.80313 7.69408C5.9864 7.88996 6.23495 8 6.4941 8C6.75325 8 7.0018 7.88996 7.18507 7.69408L12.7138 1.78334C12.8971 1.5874 13 1.32169 13 1.04463C13 0.767573 12.8971 0.501858 12.7138 0.305919Z" fill="currentColor"/>
</svg>
