<svg width="20" height="12" viewBox="0 0 20 12" fill="none" xmlns="http://www.w3.org/2000/svg">
<path d="M19.5598 0.458879C19.2778 0.165059 18.8954 9.65646e-08 18.4967 1.3142e-07C18.098 1.66275e-07 17.7157 0.165059 17.4337 0.458879L9.99092 8.21692L2.54815 0.45888C2.26457 0.173387 1.88476 0.0154139 1.49052 0.0189855C1.09629 0.0225561 0.719167 0.187385 0.440389 0.477972C0.161612 0.768558 0.00348187 1.16165 5.63089e-05 1.57259C-0.00336925 1.98352 0.148185 2.37942 0.422074 2.67502L8.92789 11.5411C9.20985 11.8349 9.59222 12 9.99092 12C10.3896 12 10.772 11.8349 11.054 11.5411L19.5598 2.67501C19.8416 2.3811 20 1.98253 20 1.56695C20 1.15136 19.8416 0.752788 19.5598 0.458879Z" fill="currentColor"/>
</svg>
