<svg width="18" height="18" viewBox="0 0 18 18" fill="none" xmlns="http://www.w3.org/2000/svg">
<path d="M13.1085 7.5H13.125C14.0201 7.5 14.8785 7.85558 15.5115 8.48852C16.1444 9.12145 16.5 9.9799 16.5 10.875C16.5 11.7701 16.1444 12.6286 15.5115 13.2615C14.8785 13.8944 14.0201 14.25 13.125 14.25H5.25C4.28651 14.2502 3.35991 13.8795 2.66238 13.2149C1.96485 12.5502 1.5499 11.6426 1.5036 10.6802C1.4573 9.71783 1.7832 8.77456 2.4137 8.04601C3.04421 7.31747 3.93094 6.85956 4.89 6.76725M13.1085 7.5C13.119 7.3765 13.1245 7.2515 13.125 7.125C13.1266 6.06088 12.717 5.0373 11.9816 4.26813C11.2463 3.49897 10.2422 3.04373 9.17904 2.99754C8.11592 2.95136 7.07608 3.3178 6.2768 4.0203C5.47753 4.7228 4.98065 5.707 4.89 6.76725M13.1085 7.5C13.033 8.32607 12.7102 9.11019 12.1822 9.75M4.89 6.76725C5.0085 6.75575 5.1285 6.75 5.25 6.75C6.0945 6.75 6.87375 7.029 7.5 7.5" stroke="white" stroke-width="1.125" stroke-linecap="round" stroke-linejoin="round"/>
</svg>
