<svg width="20" height="20" viewBox="0 0 20 20" fill="none" xmlns="http://www.w3.org/2000/svg">
<path fill-rule="evenodd" clip-rule="evenodd" d="M10 3.33335C8.4529 3.33335 6.96917 3.94793 5.87521 5.0419C4.78125 6.13586 4.16667 7.61959 4.16667 9.16669V16.35C4.16664 16.4081 4.18176 16.4651 4.21055 16.5155C4.23933 16.5659 4.28078 16.6079 4.33078 16.6374C4.38079 16.6668 4.43762 16.6827 4.49565 16.6835C4.55368 16.6842 4.61091 16.6698 4.66167 16.6417L5.4475 16.2059C5.94858 15.9274 6.51301 15.7828 7.08626 15.7862C7.65952 15.7896 8.22222 15.9407 8.72 16.225L9.17333 16.4842C9.42511 16.628 9.71005 16.7036 10 16.7036C10.29 16.7036 10.5749 16.628 10.8267 16.4842L11.28 16.2259C11.7777 15.9414 12.3404 15.7901 12.9136 15.7866C13.4869 15.7831 14.0513 15.9275 14.5525 16.2059L15.3383 16.6417C15.3891 16.6698 15.4463 16.6842 15.5043 16.6835C15.5624 16.6827 15.6192 16.6668 15.6692 16.6374C15.7192 16.6079 15.7607 16.5659 15.7895 16.5155C15.8182 16.4651 15.8334 16.4081 15.8333 16.35V9.16669C15.8333 8.40064 15.6824 7.6421 15.3893 6.93437C15.0961 6.22663 14.6665 5.58357 14.1248 5.0419C13.5831 4.50022 12.9401 4.07054 12.2323 3.77739C11.5246 3.48424 10.766 3.33335 10 3.33335ZM2.5 9.16669C2.5 7.17756 3.29018 5.26991 4.6967 3.86339C6.10322 2.45686 8.01088 1.66669 10 1.66669C11.9891 1.66669 13.8968 2.45686 15.3033 3.86339C16.7098 5.26991 17.5 7.17756 17.5 9.16669V16.35C17.5 17.875 15.8617 18.8392 14.5292 18.0992L13.7433 17.6625C13.4927 17.5233 13.2104 17.451 12.9237 17.4528C12.637 17.4545 12.3556 17.5302 12.1067 17.6725L11.6542 17.9309C11.1504 18.2188 10.5802 18.3703 10 18.3703C9.41977 18.3703 8.84958 18.2188 8.34583 17.9309L7.89333 17.6725C7.64443 17.5302 7.36302 17.4545 7.07631 17.4528C6.7896 17.451 6.50729 17.5233 6.25667 17.6625L5.47167 18.0992C4.13833 18.8392 2.5 17.875 2.5 16.35V9.16669ZM8.75 8.75002C8.75 9.08154 8.6183 9.39948 8.38388 9.6339C8.14946 9.86832 7.83152 10 7.5 10C7.16848 10 6.85054 9.86832 6.61612 9.6339C6.3817 9.39948 6.25 9.08154 6.25 8.75002C6.25 8.4185 6.3817 8.10056 6.61612 7.86614C6.85054 7.63172 7.16848 7.50002 7.5 7.50002C7.83152 7.50002 8.14946 7.63172 8.38388 7.86614C8.6183 8.10056 8.75 8.4185 8.75 8.75002ZM12.5 10C12.8315 10 13.1495 9.86832 13.3839 9.6339C13.6183 9.39948 13.75 9.08154 13.75 8.75002C13.75 8.4185 13.6183 8.10056 13.3839 7.86614C13.1495 7.63172 12.8315 7.50002 12.5 7.50002C12.1685 7.50002 11.8505 7.63172 11.6161 7.86614C11.3817 8.10056 11.25 8.4185 11.25 8.75002C11.25 9.08154 11.3817 9.39948 11.6161 9.6339C11.8505 9.86832 12.1685 10 12.5 10Z" fill="white"/>
</svg>
