<svg width="16" height="18" viewBox="0 0 16 18" fill="none" xmlns="http://www.w3.org/2000/svg">
<path fill-rule="evenodd" clip-rule="evenodd" d="M8 2.33335C6.4529 2.33335 4.96917 2.94793 3.87521 4.0419C2.78125 5.13586 2.16667 6.61959 2.16667 8.16669V15.35C2.16664 15.4081 2.18176 15.4651 2.21055 15.5155C2.23933 15.5659 2.28078 15.6079 2.33078 15.6374C2.38079 15.6668 2.43762 15.6827 2.49565 15.6835C2.55368 15.6842 2.61091 15.6698 2.66167 15.6417L3.4475 15.2059C3.94858 14.9274 4.51301 14.7828 5.08626 14.7862C5.65952 14.7896 6.22222 14.9407 6.72 15.225L7.17333 15.4842C7.42511 15.628 7.71005 15.7036 8 15.7036C8.28995 15.7036 8.57489 15.628 8.82667 15.4842L9.28 15.2259C9.77771 14.9414 10.3404 14.7901 10.9136 14.7866C11.4869 14.7831 12.0513 14.9275 12.5525 15.2059L13.3383 15.6417C13.3891 15.6698 13.4463 15.6842 13.5043 15.6835C13.5624 15.6827 13.6192 15.6668 13.6692 15.6374C13.7192 15.6079 13.7607 15.5659 13.7895 15.5155C13.8182 15.4651 13.8334 15.4081 13.8333 15.35V8.16669C13.8333 7.40064 13.6824 6.6421 13.3893 5.93437C13.0961 5.22663 12.6665 4.58357 12.1248 4.0419C11.5831 3.50022 10.9401 3.07054 10.2323 2.77739C9.52459 2.48424 8.76604 2.33335 8 2.33335ZM0.5 8.16669C0.5 6.17756 1.29018 4.26991 2.6967 2.86339C4.10322 1.45686 6.01088 0.666687 8 0.666687C9.98912 0.666687 11.8968 1.45686 13.3033 2.86339C14.7098 4.26991 15.5 6.17756 15.5 8.16669V15.35C15.5 16.875 13.8617 17.8392 12.5292 17.0992L11.7433 16.6625C11.4927 16.5233 11.2104 16.451 10.9237 16.4528C10.637 16.4545 10.3556 16.5302 10.1067 16.6725L9.65417 16.9309C9.15042 17.2188 8.58023 17.3703 8 17.3703C7.41977 17.3703 6.84958 17.2188 6.34583 16.9309L5.89333 16.6725C5.64443 16.5302 5.36302 16.4545 5.07631 16.4528C4.7896 16.451 4.50729 16.5233 4.25667 16.6625L3.47167 17.0992C2.13833 17.8392 0.5 16.875 0.5 15.35V8.16669ZM6.75 7.75002C6.75 8.08154 6.6183 8.39948 6.38388 8.6339C6.14946 8.86832 5.83152 9.00002 5.5 9.00002C5.16848 9.00002 4.85054 8.86832 4.61612 8.6339C4.3817 8.39948 4.25 8.08154 4.25 7.75002C4.25 7.4185 4.3817 7.10056 4.61612 6.86614C4.85054 6.63172 5.16848 6.50002 5.5 6.50002C5.83152 6.50002 6.14946 6.63172 6.38388 6.86614C6.6183 7.10056 6.75 7.4185 6.75 7.75002ZM10.5 9.00002C10.8315 9.00002 11.1495 8.86832 11.3839 8.6339C11.6183 8.39948 11.75 8.08154 11.75 7.75002C11.75 7.4185 11.6183 7.10056 11.3839 6.86614C11.1495 6.63172 10.8315 6.50002 10.5 6.50002C10.1685 6.50002 9.85054 6.63172 9.61612 6.86614C9.3817 7.10056 9.25 7.4185 9.25 7.75002C9.25 8.08154 9.3817 8.39948 9.61612 8.6339C9.85054 8.86832 10.1685 9.00002 10.5 9.00002Z" fill="currentColor"/>
</svg>
