<svg width="34" height="34" viewBox="0 0 34 34" fill="none" xmlns="http://www.w3.org/2000/svg">
<path d="M13.8375 15.3332H20.5042V10.3332C20.5042 9.89114 20.6797 9.46722 20.9923 9.15466C21.3049 8.8421 21.7288 8.6665 22.1708 8.6665C22.6128 8.6665 23.0368 8.8421 23.3493 9.15466C23.6619 9.46722 23.8375 9.89114 23.8375 10.3332V23.6665C23.8375 24.1085 23.6619 24.5325 23.3493 24.845C23.0368 25.1576 22.6128 25.3332 22.1708 25.3332C21.7288 25.3332 21.3049 25.1576 20.9923 24.845C20.6797 24.5325 20.5042 24.1085 20.5042 23.6665V18.6665H13.8375V23.6665C13.8375 24.1085 13.6619 24.5325 13.3493 24.845C13.0368 25.1576 12.6128 25.3332 12.1708 25.3332C11.7288 25.3332 11.3049 25.1576 10.9923 24.845C10.6797 24.5325 10.5042 24.1085 10.5042 23.6665V10.3332C10.5042 9.89114 10.6797 9.46722 10.9923 9.15466C11.3049 8.8421 11.7288 8.6665 12.1708 8.6665C12.6128 8.6665 13.0368 8.8421 13.3493 9.15466C13.6619 9.46722 13.8375 9.89114 13.8375 10.3332V15.3332Z" fill="currentColor"/>
</svg>
