<svg viewBox="0 0 60 60" fill="none" xmlns="http://www.w3.org/2000/svg">
<path d="M10 25.1475V33.7075C10 38.34 10 40.6575 10.5525 42.5475C11.87 47.0475 15.39 50.5875 19.89 52.1625C21.39 52.6025 22.88 53.07 25.75 53.4925C27.4251 53.7317 29.1292 53.6759 30.785 53.3275C31.5425 53.1725 32.16 53.04 32.68 52.9275C33.905 52.6625 35.13 52.345 36.255 51.7925C37.525 51.1725 38.5125 50.5275 39.9425 49.46C40.7975 48.8225 41.58 48.045 43.1425 46.49L51.26 38.415C51.6531 38.0246 51.965 37.5604 52.1779 37.0489C52.3907 36.5375 52.5003 35.989 52.5003 35.435C52.5003 34.881 52.3907 34.3326 52.1779 33.8211C51.965 33.3097 51.6531 32.8454 51.26 32.455C50.4638 31.6642 49.3872 31.2204 48.265 31.2204C47.1428 31.2204 46.0662 31.6642 45.27 32.455L39.645 38.0525V25.1475" stroke="currentColor" stroke-width="3.75" stroke-linecap="round" stroke-linejoin="round"/>
<path d="M32.2325 19.63V14.875C32.2325 12.8375 33.8925 11.1875 35.94 11.1875C37.985 11.1875 39.645 12.8375 39.645 14.875V25.935M24.8225 25.1375V9.875C24.8225 7.8375 26.4825 6.1875 28.5275 6.1875C30.575 6.1875 32.2325 7.8375 32.2325 9.875V25.1475M17.41 18.3V25.1475V12.3875C17.4351 11.4212 17.8366 10.5029 18.5289 9.82835C19.2212 9.15378 20.1496 8.77627 21.1162 8.77627C22.0829 8.77627 23.0113 9.15378 23.7036 9.82835C24.3959 10.5029 24.7974 11.4212 24.8225 12.3875V25.1475M17.41 22.135V19.875C17.41 17.8375 15.7525 16.1875 13.705 16.1875C11.66 16.1875 10 17.8375 10 19.875V26.72" stroke="currentColor" stroke-width="3.75" stroke-linecap="round" stroke-linejoin="round"/>
</svg>
