<svg width="34" height="34" viewBox="0 0 34 34" fill="none" xmlns="http://www.w3.org/2000/svg">
<path d="M12 22C10.6167 22 9.43767 21.5123 8.463 20.537C7.48833 19.5617 7.00067 18.3827 7 17C6.99933 15.6173 7.487 14.4383 8.463 13.463C9.439 12.4877 10.618 12 12 12H15C15.2833 12 15.521 12.096 15.713 12.288C15.905 12.48 16.0007 12.7173 16 13C15.9993 13.2827 15.9033 13.5203 15.712 13.713C15.5207 13.9057 15.2833 14.0013 15 14H12C11.1667 14 10.4583 14.2917 9.875 14.875C9.29167 15.4583 9 16.1667 9 17C9 17.8333 9.29167 18.5417 9.875 19.125C10.4583 19.7083 11.1667 20 12 20H15C15.2833 20 15.521 20.096 15.713 20.288C15.905 20.48 16.0007 20.7173 16 21C15.9993 21.2827 15.9033 21.5203 15.712 21.713C15.5207 21.9057 15.2833 22.0013 15 22H12ZM14 18C13.7167 18 13.4793 17.904 13.288 17.712C13.0967 17.52 13.0007 17.2827 13 17C12.9993 16.7173 13.0953 16.48 13.288 16.288C13.4807 16.096 13.718 16 14 16H20C20.2833 16 20.521 16.096 20.713 16.288C20.905 16.48 21.0007 16.7173 21 17C20.9993 17.2827 20.9033 17.5203 20.712 17.713C20.5207 17.9057 20.2833 18.0013 20 18H14ZM19 22C18.7167 22 18.4793 21.904 18.288 21.712C18.0967 21.52 18.0007 21.2827 18 21C17.9993 20.7173 18.0953 20.48 18.288 20.288C18.4807 20.096 18.718 20 19 20H22C22.8333 20 23.5417 19.7083 24.125 19.125C24.7083 18.5417 25 17.8333 25 17C25 16.1667 24.7083 15.4583 24.125 14.875C23.5417 14.2917 22.8333 14 22 14H19C18.7167 14 18.4793 13.904 18.288 13.712C18.0967 13.52 18.0007 13.2827 18 13C17.9993 12.7173 18.0953 12.48 18.288 12.288C18.4807 12.096 18.718 12 19 12H22C23.3833 12 24.5627 12.4877 25.538 13.463C26.5133 14.4383 27.0007 15.6173 27 17C26.9993 18.3827 26.5117 19.562 25.537 20.538C24.5623 21.514 23.3833 22.0013 22 22H19Z" fill="currentColor"/>
</svg>
