<svg width="20" height="20" viewBox="0 0 20 20" fill="none" xmlns="http://www.w3.org/2000/svg">
<path d="M17.4392 8.325C11.9308 7.56833 7.18082 11.6583 7.49999 17.0833M5.41666 6.66667C5.41666 7.10869 5.59225 7.53262 5.90481 7.84518C6.21737 8.15774 6.6413 8.33333 7.08332 8.33333C7.52535 8.33333 7.94927 8.15774 8.26183 7.84518C8.57439 7.53262 8.74999 7.10869 8.74999 6.66667C8.74999 6.22464 8.57439 5.80072 8.26183 5.48816C7.94927 5.17559 7.52535 5 7.08332 5C6.6413 5 6.21737 5.17559 5.90481 5.48816C5.59225 5.80072 5.41666 6.22464 5.41666 6.66667Z" stroke="currentColor" stroke-width="1.25" stroke-linecap="round" stroke-linejoin="round"/>
<path d="M2.5 10.8884C4.81667 10.5675 6.89583 11.6867 8.02 13.4717" stroke="currentColor" stroke-width="1.25" stroke-linecap="round" stroke-linejoin="round"/>
<path d="M2.5 7.83333C2.5 5.96667 2.5 5.03333 2.86333 4.32C3.18291 3.69282 3.69282 3.18291 4.32 2.86333C5.03333 2.5 5.96667 2.5 7.83333 2.5H12.1667C14.0333 2.5 14.9667 2.5 15.68 2.86333C16.3072 3.18291 16.8171 3.69282 17.1367 4.32C17.5 5.03333 17.5 5.96667 17.5 7.83333V12.1667C17.5 14.0333 17.5 14.9667 17.1367 15.68C16.8171 16.3072 16.3072 16.8171 15.68 17.1367C14.9667 17.5 14.0333 17.5 12.1667 17.5H7.83333C5.96667 17.5 5.03333 17.5 4.32 17.1367C3.69282 16.8171 3.18291 16.3072 2.86333 15.68C2.5 14.9667 2.5 14.0333 2.5 12.1667V7.83333Z" stroke="currentColor" stroke-width="1.25" stroke-linecap="round" stroke-linejoin="round"/>
</svg>
