<svg viewBox="0 0 18 18" fill="none" xmlns="http://www.w3.org/2000/svg">
<path d="M7.10417 13.3333C5.36319 13.3333 3.88992 12.7302 2.68433 11.524C1.47875 10.3178 0.875639 8.8445 0.875001 7.10417C0.874362 5.36383 1.47747 3.89056 2.68433 2.68433C3.89119 1.47811 5.36447 0.875 7.10417 0.875C8.84386 0.875 10.3175 1.47811 11.525 2.68433C12.7325 3.89056 13.3353 5.36383 13.3333 7.10417C13.3333 7.80694 13.2215 8.46979 12.9979 9.09271C12.7743 9.71562 12.4708 10.2667 12.0875 10.7458L17.4542 16.1125C17.6299 16.2882 17.7177 16.5118 17.7177 16.7833C17.7177 17.0549 17.6299 17.2785 17.4542 17.4542C17.2785 17.6299 17.0549 17.7177 16.7833 17.7177C16.5118 17.7177 16.2882 17.6299 16.1125 17.4542L10.7458 12.0875C10.2667 12.4708 9.71563 12.7743 9.09271 12.9979C8.46979 13.2215 7.80694 13.3333 7.10417 13.3333ZM7.10417 11.4167C8.30208 11.4167 9.32047 10.9976 10.1593 10.1593C10.9982 9.32111 11.4173 8.30272 11.4167 7.10417C11.416 5.90561 10.9969 4.88754 10.1593 4.04996C9.32175 3.21238 8.30336 2.79294 7.10417 2.79167C5.90497 2.79039 4.8869 3.20982 4.04996 4.04996C3.21301 4.8901 2.79358 5.90817 2.79167 7.10417C2.78975 8.30017 3.20918 9.31855 4.04996 10.1593C4.89074 11.0001 5.90881 11.4192 7.10417 11.4167Z" fill="currentColor"/>
</svg>
