<svg viewBox="0 0 29 23" fill="none" xmlns="http://www.w3.org/2000/svg">
<path d="M17.9953 1.57093H11.0048C10.1597 1.57059 9.32286 1.73677 8.54205 2.05996C7.76124 2.38315 7.05177 2.85703 6.45416 3.45451C5.85656 4.052 5.38254 4.76138 5.05919 5.54212C4.73584 6.32286 4.5695 7.15967 4.56967 8.00472V14.9952C4.56933 15.8404 4.73555 16.6773 5.05882 17.4582C5.3821 18.2391 5.85609 18.9487 6.45371 19.5463C7.05133 20.1439 7.76086 20.6179 8.54175 20.9412C9.32265 21.2644 10.1596 21.4306 11.0048 21.4303H17.9953C18.8404 21.4306 19.6774 21.2644 20.4583 20.9412C21.2392 20.6179 21.9487 20.1439 22.5463 19.5463C23.1439 18.9487 23.6179 18.2391 23.9412 17.4582C24.2645 16.6773 24.4307 15.8404 24.4303 14.9952V8.00472C24.4307 7.15956 24.2645 6.32262 23.9412 5.54172C23.6179 4.76083 23.1439 4.0513 22.5463 3.45368C21.9487 2.85606 21.2392 2.38206 20.4583 2.05879C19.6774 1.73552 18.8404 1.5693 17.9953 1.56964V1.57093Z" stroke="currentColor" stroke-width="1.9375"/>
<path d="M24.3244 16.1345H26.4156C26.7668 16.1345 27.1035 15.995 27.3518 15.7467C27.6001 15.4984 27.7396 15.1616 27.7396 14.8105V8.19072C27.7396 7.83958 27.6001 7.50283 27.3518 7.25454C27.1035 7.00625 26.7668 6.86676 26.4156 6.86676H24.3231M4.67688 16.1345H2.58438C2.41052 16.1345 2.23835 16.1002 2.07772 16.0337C1.91709 15.9672 1.77114 15.8696 1.6482 15.7467C1.52526 15.6237 1.42774 15.4778 1.3612 15.3172C1.29467 15.1565 1.26042 14.9844 1.26042 14.8105V8.19072C1.26042 7.83958 1.39991 7.50283 1.6482 7.25454C1.89649 7.00625 2.23324 6.86676 2.58438 6.86676H4.67688" stroke="currentColor" stroke-width="1.9375"/>
<path d="M2.57146 6.86676V1.57092M26.4156 6.86676L26.4027 1.57092M10.5152 7.31884V10.8038M18.459 7.31884V10.8038M11.8392 16.1345H17.135" stroke="currentColor" stroke-width="1.9375" stroke-linecap="round" stroke-linejoin="round"/>
</svg>
