<svg width="34" height="34" viewBox="0 0 34 34" fill="none" xmlns="http://www.w3.org/2000/svg">
<path d="M20.5 8H14.5C14.1022 8 13.7206 8.14972 13.4393 8.41622C13.158 8.68272 13 9.04417 13 9.42105C13 9.79794 13.158 10.1594 13.4393 10.4259C13.7206 10.6924 14.1022 10.8421 14.5 10.8421H15.8L14.176 23.1579H12.5C12.1022 23.1579 11.7206 23.3076 11.4393 23.5741C11.158 23.8406 11 24.2021 11 24.5789C11 24.9558 11.158 25.3173 11.4393 25.5838C11.7206 25.8503 12.1022 26 12.5 26H18.5C18.8978 26 19.2794 25.8503 19.5607 25.5838C19.842 25.3173 20 24.9558 20 24.5789C20 24.2021 19.842 23.8406 19.5607 23.5741C19.2794 23.3076 18.8978 23.1579 18.5 23.1579H17.2L18.824 10.8421H20.5C20.8978 10.8421 21.2794 10.6924 21.5607 10.4259C21.842 10.1594 22 9.79794 22 9.42105C22 9.04417 21.842 8.68272 21.5607 8.41622C21.2794 8.14972 20.8978 8 20.5 8Z" fill="currentColor"/>
</svg>
