<svg width="20" height="10" viewBox="0 0 20 10" fill="none" xmlns="http://www.w3.org/2000/svg">
<path d="M8.00235 1.5H8H5C4.03557 1.5 3.19961 1.84328 2.52145 2.52145C1.84328 3.19961 1.5 4.03557 1.5 5C1.5 5.96443 1.84328 6.80039 2.52145 7.47855C3.19961 8.15672 4.03557 8.5 5 8.5H8C8.15715 8.5 8.26566 8.54777 8.35945 8.64155C8.45317 8.73528 8.50037 8.84308 8.5 8.99882C8.49963 9.1559 8.45168 9.26556 8.35722 9.36068C8.26482 9.45372 8.15817 9.50074 8.00235 9.5H8H5C3.74885 9.5 2.69722 9.06472 1.81668 8.18357C0.935934 7.30222 0.500604 6.25037 0.500001 4.99976C0.499398 3.74953 0.934554 2.69795 1.81643 1.81667C2.69851 0.935203 3.75031 0.5 5 0.5H8C8.15715 0.5 8.26566 0.54777 8.35945 0.641554C8.45317 0.735275 8.50037 0.843079 8.5 0.998821C8.49963 1.1559 8.45167 1.26557 8.35722 1.36068C8.26482 1.45372 8.15818 1.50074 8.00235 1.5ZM13.0024 5.5H13H7C6.84287 5.5 6.73505 5.45227 6.64217 5.35906C6.54829 5.26485 6.50037 5.15588 6.5 4.99882C6.49963 4.84363 6.54677 4.73601 6.64094 4.64217C6.73611 4.54732 6.84488 4.5 7 4.5H13C13.1572 4.5 13.2657 4.54777 13.3594 4.64155C13.4532 4.73527 13.5004 4.84308 13.5 4.99882C13.4996 5.1559 13.4517 5.26557 13.3572 5.36068C13.2648 5.45372 13.1582 5.50074 13.0024 5.5ZM15.0005 9.5H15H12C11.8429 9.5 11.7351 9.45227 11.6422 9.35906C11.5483 9.26485 11.5004 9.15588 11.5 8.99882C11.4996 8.84363 11.5468 8.73602 11.6409 8.64217C11.7361 8.54732 11.8449 8.5 12 8.5H15C15.9644 8.5 16.8004 8.15672 17.4786 7.47855C18.1567 6.80039 18.5 5.96443 18.5 5C18.5 4.03557 18.1567 3.19961 17.4786 2.52145C16.8004 1.84328 15.9644 1.5 15 1.5H12C11.8429 1.5 11.7351 1.45227 11.6422 1.35906C11.5483 1.26485 11.5004 1.15588 11.5 0.998821C11.4996 0.843629 11.5468 0.736015 11.6409 0.642166C11.7361 0.547322 11.8449 0.5 12 0.5H15C16.2512 0.5 17.3032 0.935294 18.1844 1.81655C19.0657 2.6978 19.5006 3.74942 19.5 4.99976C19.4994 6.25038 19.0641 7.30263 18.1832 8.18469C17.3028 9.06635 16.2514 9.50121 15.0005 9.5Z" fill="currentColor" stroke="currentColor"/>
</svg>
