<svg width="15" height="17" viewBox="0 0 15 17" fill="none" xmlns="http://www.w3.org/2000/svg">
<path d="M7.5 3.37271e-09C8.79365 -4.74809e-05 10.037 0.501305 10.9687 1.39872C11.9005 2.29614 12.4482 3.51976 12.4967 4.8125L12.5 5H13.3333C13.7538 4.99987 14.1588 5.15867 14.4671 5.44458C14.7754 5.73049 14.9643 6.12237 14.9958 6.54167L15 6.66667V15C15.0001 15.4205 14.8413 15.8255 14.5554 16.1338C14.2695 16.4421 13.8776 16.631 13.4583 16.6625L13.3333 16.6667H1.66667C1.24619 16.6668 0.841195 16.508 0.532877 16.2221C0.224559 15.9362 0.0357029 15.5443 0.00416685 15.125L8.35567e-08 15V6.66667C-0.000132983 6.24619 0.158672 5.84119 0.444581 5.53288C0.73049 5.22456 1.12237 5.0357 1.54167 5.00417L1.66667 5H2.5C2.5 3.67392 3.02678 2.40215 3.96447 1.46447C4.90215 0.526784 6.17392 3.37271e-09 7.5 3.37271e-09ZM13.3333 6.66667H1.66667V15H13.3333V6.66667ZM7.5 8.33333C7.85549 8.33345 8.20163 8.44722 8.48787 8.65804C8.7741 8.86886 8.98543 9.16568 9.09098 9.50514C9.19653 9.8446 9.19078 10.2089 9.07456 10.5449C8.95834 10.8808 8.73775 11.1708 8.445 11.3725L8.33333 11.4433V12.5C8.3331 12.7124 8.25177 12.9167 8.10596 13.0711C7.96015 13.2256 7.76087 13.3185 7.54884 13.331C7.3368 13.3434 7.12802 13.2744 6.96514 13.1381C6.80226 13.0018 6.69759 12.8084 6.6725 12.5975L6.66667 12.5V11.4433C6.34895 11.2599 6.10065 10.9767 5.96026 10.6378C5.81987 10.2988 5.79524 9.923 5.8902 9.56863C5.98515 9.21425 6.19439 8.90111 6.48544 8.67776C6.7765 8.45442 7.13312 8.33335 7.5 8.33333ZM7.5 1.66667C6.61594 1.66667 5.7681 2.01786 5.14298 2.64298C4.51786 3.2681 4.16667 4.11594 4.16667 5H10.8333C10.8333 4.11594 10.4821 3.2681 9.85702 2.64298C9.2319 2.01786 8.38406 1.66667 7.5 1.66667Z" fill="currentColor"/>
</svg>
