<svg viewBox="0 0 41 34" fill="none" xmlns="http://www.w3.org/2000/svg">
<path d="M1.8797 32L1 21.7059L14.1955 7.29412H24.7519M1.8797 32L12.4361 24.6471M1.8797 32L8.81427 24.6471M24.7519 7.29412L25.9248 10.2353M24.7519 7.29412L22.406 10.2353M25.9248 10.2353H22.406M25.9248 10.2353H28.5639M22.406 10.2353L8.81427 24.6471M12.4361 24.6471H15.3684M12.4361 24.6471H8.81427M18.3008 24.6471L15.9549 27M18.3008 24.6471H15.3684M18.3008 24.6471L31.203 10.2353M15.9549 27H26.8045L40 12.2941L39.4135 2M15.9549 27L15.3684 24.6471M39.4135 2L31.203 10.2353M39.4135 2L28.5639 10.2353M31.203 10.2353H28.5639" stroke="currentColor" />
</svg>
