<svg width="20" height="20" viewBox="0 0 20 20" fill="none" xmlns="http://www.w3.org/2000/svg">
<path d="M12.7943 19.0129C13.4773 18.8076 14.1133 18.4697 14.6657 18.0186C15.4343 17.39 15.9914 16.5914 16.32 15.7186C16.4286 15.4302 16.4621 15.119 16.4171 14.8142C16.3722 14.5093 16.2503 14.221 16.0631 13.9763C15.8759 13.7316 15.6294 13.5386 15.3469 13.4155C15.0644 13.2925 14.7553 13.2434 14.4486 13.2729C14.7114 13.2129 14.9628 13.0929 15.1857 12.9114C15.9628 12.2786 16.0228 10.8371 15.39 10.06C14.8475 9.39199 14.1539 8.86254 13.3666 8.5153C12.5792 8.16805 11.7205 8.01298 10.8614 8.06285L12.7471 3.73857C12.8545 3.49282 12.9119 3.22817 12.9159 2.96002C12.92 2.69188 12.8707 2.42561 12.7708 2.17672C12.671 1.92782 12.5226 1.70129 12.3343 1.5103C12.1461 1.31932 11.9217 1.1677 11.6743 1.06428C11.2634 0.887663 10.8039 0.859344 10.3744 0.984173C9.94493 1.109 9.5722 1.37922 9.31999 1.74857C7.90428 3.86571 5.29999 8.16 5.13856 11.32C4.91428 15.6771 5.13856 19.0129 5.13856 19.0129" stroke="white" stroke-width="1.42857" stroke-linecap="round" stroke-linejoin="round"/>
<path d="M10.2286 12.3428C10.0137 12.5191 9.84227 12.7424 9.7274 12.9955C9.61254 13.2485 9.55734 13.5246 9.56608 13.8024C9.57482 14.0802 9.64726 14.3522 9.7778 14.5976C9.90835 14.8429 10.0935 15.055 10.319 15.2174C10.5445 15.3799 10.8043 15.4883 11.0784 15.5345C11.3524 15.5806 11.6334 15.5631 11.8997 15.4835C12.1659 15.4038 12.4103 15.264 12.6139 15.0749C12.8176 14.8858 12.9751 14.6524 13.0743 14.3928C13.1798 14.1128 13.3529 13.8632 13.5782 13.6663C13.8036 13.4694 14.0741 13.3313 14.3657 13.2643C14.0678 13.2931 13.7674 13.2478 13.4912 13.1324C13.215 13.017 12.9717 12.8351 12.7829 12.6028C12.6323 12.4181 12.4469 12.2649 12.2371 12.1518C12.0273 12.0388 11.7973 11.9682 11.5603 11.944C11.3232 11.9199 11.0837 11.9427 10.8555 12.0111C10.6272 12.0795 10.4133 12.1922 10.2286 12.3428Z" stroke="white" stroke-width="1.42857" stroke-linecap="round" stroke-linejoin="round"/>
<path d="M10.8743 8.0657C10.5086 8.10856 9.63999 8.26999 9.08856 8.56999M5.05713 12.8557C3.77856 9.99713 3.8357 5.30142 3.97142 2.86999C4.0012 2.42418 4.18486 2.00253 4.49102 1.6771C4.79717 1.35166 5.20682 1.14263 5.64999 1.0857C5.91557 1.04862 6.18587 1.06475 6.44516 1.13316C6.70444 1.20156 6.94753 1.32087 7.16025 1.48414C7.37298 1.64741 7.55109 1.85137 7.68422 2.08414C7.81736 2.31692 7.90284 2.57385 7.9357 2.83999V3.98142" stroke="white" stroke-width="1.42857" stroke-linecap="round" stroke-linejoin="round"/>
</svg>
