<svg width="20" height="20" viewBox="0 0 20 20" fill="none" xmlns="http://www.w3.org/2000/svg">
<path d="M3.33333 10C3.33333 10.221 3.42113 10.433 3.57741 10.5893C3.73369 10.7456 3.94565 10.8334 4.16666 10.8334C4.38768 10.8334 4.59964 10.7456 4.75592 10.5893C4.9122 10.433 4.99999 10.221 4.99999 10C4.99999 9.77901 4.9122 9.56705 4.75592 9.41076C4.59964 9.25448 4.38768 9.16669 4.16666 9.16669C3.94565 9.16669 3.73369 9.25448 3.57741 9.41076C3.42113 9.56705 3.33333 9.77901 3.33333 10ZM9.16666 10C9.16666 10.221 9.25446 10.433 9.41074 10.5893C9.56702 10.7456 9.77898 10.8334 9.99999 10.8334C10.221 10.8334 10.433 10.7456 10.5893 10.5893C10.7455 10.433 10.8333 10.221 10.8333 10C10.8333 9.77901 10.7455 9.56705 10.5893 9.41076C10.433 9.25448 10.221 9.16669 9.99999 9.16669C9.77898 9.16669 9.56702 9.25448 9.41074 9.41076C9.25446 9.56705 9.16666 9.77901 9.16666 10ZM15 10C15 10.221 15.0878 10.433 15.2441 10.5893C15.4004 10.7456 15.6123 10.8334 15.8333 10.8334C16.0543 10.8334 16.2663 10.7456 16.4226 10.5893C16.5789 10.433 16.6667 10.221 16.6667 10C16.6667 9.77901 16.5789 9.56705 16.4226 9.41076C16.2663 9.25448 16.0543 9.16669 15.8333 9.16669C15.6123 9.16669 15.4004 9.25448 15.2441 9.41076C15.0878 9.56705 15 9.77901 15 10Z" stroke="currentColor" stroke-width="1.66667" stroke-linecap="round" stroke-linejoin="round"/>
</svg>
