<svg width="34" height="34" viewBox="0 0 34 34" fill="none" xmlns="http://www.w3.org/2000/svg">
<path fill-rule="evenodd" clip-rule="evenodd" d="M9.93981 8.75005C9.93982 8.61139 9.90139 8.47545 9.8288 8.35732C9.7562 8.23919 9.65228 8.1435 9.52858 8.08087C9.40487 8.01824 9.26623 7.99113 9.12805 8.00255C8.98987 8.01396 8.85756 8.06346 8.74581 8.14555L7.68081 8.93155C7.53134 9.0419 7.42816 9.2038 7.39124 9.38588C7.35432 9.56797 7.3863 9.75727 7.48098 9.91712C7.57566 10.077 7.7263 10.196 7.90372 10.2511C8.08114 10.3063 8.2727 10.2936 8.44131 10.2155V12.5C8.44131 12.699 8.52033 12.8897 8.66098 13.0304C8.80163 13.171 8.9924 13.25 9.19131 13.25C9.39022 13.25 9.58099 13.171 9.72164 13.0304C9.86229 12.8897 9.94131 12.699 9.94131 12.5L9.93981 8.75005ZM13.7498 9.50005C13.4514 9.50005 13.1653 9.61857 12.9543 9.82955C12.7433 10.0405 12.6248 10.3267 12.6248 10.625C12.6248 10.9234 12.7433 11.2096 12.9543 11.4205C13.1653 11.6315 13.4514 11.75 13.7498 11.75H26.4998C26.7982 11.75 27.0843 11.6315 27.2953 11.4205C27.5063 11.2096 27.6248 10.9234 27.6248 10.625C27.6248 10.3267 27.5063 10.0405 27.2953 9.82955C27.0843 9.61857 26.7982 9.50005 26.4998 9.50005H13.7498ZM13.7498 22.25C13.4514 22.25 13.1653 22.3686 12.9543 22.5796C12.7433 22.7905 12.6248 23.0767 12.6248 23.375C12.6248 23.6734 12.7433 23.9596 12.9543 24.1705C13.1653 24.3815 13.4514 24.5 13.7498 24.5H26.4998C26.7982 24.5 27.0843 24.3815 27.2953 24.1705C27.5063 23.9596 27.6248 23.6734 27.6248 23.375C27.6248 23.0767 27.5063 22.7905 27.2953 22.5796C27.0843 22.3686 26.7982 22.25 26.4998 22.25H13.7498ZM12.6248 17C12.6248 16.7017 12.7433 16.4155 12.9543 16.2046C13.1653 15.9936 13.4514 15.875 13.7498 15.875H26.4998C26.7982 15.875 27.0843 15.9936 27.2953 16.2046C27.5063 16.4155 27.6248 16.7017 27.6248 17C27.6248 17.2984 27.5063 17.5846 27.2953 17.7955C27.0843 18.0065 26.7982 18.125 26.4998 18.125H13.7498C13.4514 18.125 13.1653 18.0065 12.9543 17.7955C12.7433 17.5846 12.6248 17.2984 12.6248 17ZM8.73081 15.995C8.62581 16.0715 8.60031 16.1405 8.59581 16.169C8.55917 16.3592 8.45041 16.5278 8.2923 16.6395C8.13419 16.7513 7.93898 16.7976 7.74752 16.7687C7.55605 16.7399 7.38317 16.6381 7.26506 16.4846C7.14694 16.3312 7.09275 16.138 7.11381 15.9455C7.19031 15.428 7.50381 15.0305 7.85631 14.777C8.21031 14.5235 8.65281 14.375 9.10131 14.375C9.61881 14.375 10.1003 14.5385 10.4543 14.8895C10.8083 15.2405 10.9598 15.704 10.9598 16.1645C10.9598 16.9295 10.4783 17.447 9.81981 18.0815L9.78981 18.1085L9.77031 18.125H10.5098C10.7087 18.125 10.8995 18.2041 11.0401 18.3447C11.1808 18.4854 11.2598 18.6761 11.2598 18.875C11.2598 19.074 11.1808 19.2647 11.0401 19.4054C10.8995 19.546 10.7087 19.625 10.5098 19.625H7.74981C7.59671 19.625 7.44728 19.5781 7.32161 19.4907C7.19594 19.4032 7.10004 19.2794 7.0468 19.1358C6.99357 18.9923 6.98553 18.8359 7.02379 18.6876C7.06205 18.5394 7.14476 18.4064 7.26081 18.3065L8.79381 16.9865C9.12831 16.6625 9.30081 16.4705 9.39081 16.3355C9.45981 16.232 9.45981 16.1975 9.45981 16.169V16.166C9.45981 16.031 9.41931 15.9755 9.39831 15.9545C9.37881 15.935 9.30531 15.875 9.09981 15.875C8.96756 15.8772 8.83901 15.919 8.73081 15.995ZM7.97481 20.75C7.7759 20.75 7.58513 20.8291 7.44448 20.9697C7.30383 21.1104 7.22481 21.3011 7.22481 21.5C7.22481 21.699 7.30383 21.8897 7.44448 22.0304C7.58513 22.171 7.7759 22.25 7.97481 22.25H8.54481L8.31981 22.52C8.22868 22.6295 8.17058 22.7625 8.1523 22.9037C8.13401 23.0449 8.1563 23.1884 8.21656 23.3174C8.27681 23.4464 8.37254 23.5556 8.49256 23.6322C8.61258 23.7088 8.75193 23.7497 8.89431 23.75C9.28281 23.75 9.44181 23.8655 9.50481 23.933C9.58131 24.014 9.62481 24.1325 9.62481 24.26C9.62552 24.2676 9.62338 24.275 9.61881 24.281C9.59564 24.3124 9.5666 24.3388 9.53331 24.359C9.36451 24.4568 9.17181 24.5057 8.97681 24.5C8.84278 24.5034 8.70995 24.4741 8.58981 24.4145C8.50131 24.3665 8.47731 24.323 8.47581 24.3185C8.39306 24.1375 8.2418 23.9968 8.05529 23.9273C7.86879 23.8578 7.66232 23.8653 7.48131 23.948C7.3003 24.0308 7.15957 24.1821 7.09009 24.3686C7.02061 24.5551 7.02806 24.7615 7.11081 24.9425C7.43031 25.6385 8.20281 26 8.97681 26C9.45531 26 9.95331 25.877 10.3568 25.613C10.7693 25.3415 11.1248 24.8825 11.1248 24.26C11.1248 23.8205 10.9808 23.309 10.5923 22.901C10.4798 22.7826 10.3528 22.6788 10.2143 22.592L10.7243 21.9815C10.8159 21.8722 10.8744 21.7389 10.8929 21.5975C10.9115 21.4561 10.8893 21.3123 10.829 21.183C10.7687 21.0537 10.6727 20.9443 10.5524 20.8676C10.4321 20.7909 10.2925 20.7501 10.1498 20.75H7.97481Z" fill="currentColor"/>
</svg>
