<svg width="19" height="13" viewBox="0 0 21 15" fill="none" xmlns="http://www.w3.org/2000/svg">
<path d="M10.5002 12C8.02518 12 6.00018 9.975 6.00018 7.5C6.00018 5.025 8.02518 3 10.5002 3C12.9752 3 15.0002 5.025 15.0002 7.5C15.0002 9.975 12.9752 12 10.5002 12ZM10.5002 4.5C8.85018 4.5 7.50018 5.85 7.50018 7.5C7.50018 9.15 8.85018 10.5 10.5002 10.5C12.1502 10.5 13.5002 9.15 13.5002 7.5C13.5002 5.85 12.1502 4.5 10.5002 4.5Z" fill="currentColor"/>
<path d="M10.5002 15C5.71518 15 1.51518 12.09 0.045183 7.74C-0.015061 7.58567 -0.015061 7.41433 0.045183 7.26C1.51518 2.925 5.73018 0 10.5002 0C15.2702 0 19.4852 2.91 20.9552 7.26C21.0152 7.41 21.0152 7.59 20.9552 7.74C19.4852 12.075 15.2702 15 10.5002 15ZM1.54518 7.5C2.88018 11.1 6.45018 13.5 10.5002 13.5C14.5502 13.5 18.1052 11.1 19.4552 7.5C18.1202 3.9 14.5502 1.5 10.5002 1.5C6.45018 1.5 2.89518 3.9 1.54518 7.5Z" fill="currentColor"/>
</svg>
