<svg width="19" height="18" viewBox="0 0 21 20" fill="none" xmlns="http://www.w3.org/2000/svg">
<path d="M10.5002 14.265C8.02518 14.265 6.00018 12.24 6.00018 9.76501C6.00018 7.29001 8.02518 5.26501 10.5002 5.26501C12.9752 5.26501 15.0002 7.29001 15.0002 9.76501C15.0002 12.24 12.9752 14.265 10.5002 14.265ZM10.5002 6.76501C8.85018 6.76501 7.50018 8.11501 7.50018 9.76501C7.50018 11.415 8.85018 12.765 10.5002 12.765C12.1502 12.765 13.5002 11.415 13.5002 9.76501C13.5002 8.11501 12.1502 6.76501 10.5002 6.76501Z" fill="currentColor"/>
<path d="M10.5002 17.265C5.71518 17.265 1.51518 14.355 0.045183 10.005C-0.015061 9.85069 -0.015061 9.67934 0.045183 9.52501C1.51518 5.19001 5.73018 2.26501 10.5002 2.26501C15.2702 2.26501 19.4852 5.17501 20.9552 9.52501C21.0152 9.67501 21.0152 9.85501 20.9552 10.005C19.4852 14.34 15.2702 17.265 10.5002 17.265ZM1.54518 9.76501C2.88018 13.365 6.45018 15.765 10.5002 15.765C14.5502 15.765 18.1052 13.365 19.4552 9.76501C18.1202 6.16501 14.5502 3.76501 10.5002 3.76501C6.45018 3.76501 2.89518 6.16501 1.54518 9.76501Z" fill="currentColor"/>
<path d="M19.5002 19.515C19.4018 19.5162 19.3043 19.4968 19.2139 19.4581C19.1235 19.4193 19.0422 19.3621 18.9752 19.29L0.975183 1.29C0.675183 0.99 0.675183 0.525 0.975183 0.225C1.27518 -0.075 1.74018 -0.075 2.04018 0.225L20.0252 18.24C20.3252 18.54 20.3252 19.005 20.0252 19.305C19.8752 19.455 19.6802 19.53 19.5002 19.53V19.515Z" fill="currentColor"/>
</svg>
