<svg width="30" height="30" viewBox="0 0 30 30" fill="none" xmlns="http://www.w3.org/2000/svg">
<g clip-path="url(#clip0_59_14)">
<path d="M15.0001 18.3332C15.6973 18.3332 16.3788 18.1265 16.9585 17.7391C17.5382 17.3518 17.99 16.8013 18.2568 16.1572C18.5236 15.5131 18.5934 14.8043 18.4574 14.1205C18.3214 13.4367 17.9856 12.8086 17.4926 12.3157C16.9997 11.8227 16.3716 11.4869 15.6878 11.3509C15.004 11.2149 14.2952 11.2847 13.6511 11.5515C13.007 11.8183 12.4565 12.2701 12.0692 12.8498C11.6818 13.4295 11.4751 14.111 11.4751 14.8082C11.4751 15.7431 11.8465 16.6397 12.5075 17.3008C13.1686 17.9618 14.0652 18.3332 15.0001 18.3332ZM15.0001 12.6165C15.4336 12.6165 15.8573 12.7451 16.2177 12.9859C16.5781 13.2267 16.8591 13.569 17.0249 13.9695C17.1908 14.37 17.2342 14.8106 17.1497 15.2358C17.0651 15.6609 16.8564 16.0514 16.5498 16.3579C16.2433 16.6645 15.8528 16.8732 15.4277 16.9578C15.0025 17.0423 14.5619 16.9989 14.1614 16.833C13.7609 16.6672 13.4186 16.3862 13.1778 16.0258C12.937 15.6654 12.8084 15.2417 12.8084 14.8082C12.8084 14.2269 13.0393 13.6695 13.4504 13.2585C13.8614 12.8474 14.4188 12.6165 15.0001 12.6165Z" fill="currentColor"/>
<path d="M18.3332 3.33317C18.3332 2.89114 18.1576 2.46722 17.845 2.15466C17.5325 1.8421 17.1085 1.6665 16.6665 1.6665H13.3332C12.8911 1.6665 12.4672 1.8421 12.1547 2.15466C11.8421 2.46722 11.6665 2.89114 11.6665 3.33317V9.1665H18.3332V3.33317ZM16.6665 7.49984H13.3332V3.33317H16.6665V7.49984Z" fill="currentColor"/>
<path d="M21.6669 25V23.0834C21.6693 22.8613 21.5925 22.6456 21.4502 22.475C20.6415 21.5741 19.6444 20.8621 18.5297 20.3898C17.415 19.9174 16.21 19.6961 15.0002 19.7417C13.7884 19.6992 12.5822 19.9244 11.4674 20.4011C10.3526 20.8779 9.35655 21.5945 8.55019 22.5C8.40852 22.6709 8.33179 22.8864 8.33352 23.1084V25H9.66686V23.225C10.3506 22.5064 11.1804 21.9427 12.1004 21.5718C13.0204 21.2009 14.0092 21.0315 15.0002 21.075C15.9918 21.0326 16.981 21.2033 17.901 21.5756C18.821 21.9479 19.6505 22.5132 20.3335 23.2334V25H21.6669Z" fill="currentColor"/>
<path d="M23.3333 5H20V6.66667H23.3333V26.6667H6.66667V6.66667H10V5H6.66667C6.22464 5 5.80072 5.17559 5.48816 5.48816C5.17559 5.80072 5 6.22464 5 6.66667V26.6667C5 27.1087 5.17559 27.5326 5.48816 27.8452C5.80072 28.1577 6.22464 28.3333 6.66667 28.3333H23.3333C23.7754 28.3333 24.1993 28.1577 24.5118 27.8452C24.8244 27.5326 25 27.1087 25 26.6667V6.66667C25 6.22464 24.8244 5.80072 24.5118 5.48816C24.1993 5.17559 23.7754 5 23.3333 5Z" fill="currentColor"/>
</g>
<defs>
<clipPath id="clip0_59_14">
<rect width="30" height="30" fill="currentColor"/>
</clipPath>
</defs>
</svg>
