<svg width="16" height="20" viewBox="0 0 16 20" fill="none" xmlns="http://www.w3.org/2000/svg">
<path fill-rule="evenodd" clip-rule="evenodd" d="M9.586 0C10.0556 0.000114731 10.5101 0.165434 10.87 0.467L11 0.586L15.414 5C15.746 5.33202 15.9506 5.77028 15.992 6.238L16 6.414V18C16.0002 18.5046 15.8096 18.9906 15.4665 19.3605C15.1234 19.7305 14.6532 19.9572 14.15 19.995L14 20H2C1.49542 20.0002 1.00943 19.8096 0.639452 19.4665C0.269471 19.1234 0.0428434 18.6532 0.00500021 18.15L1.00268e-07 18V2C-0.000159579 1.49542 0.190406 1.00943 0.533497 0.639452C0.876588 0.269471 1.34684 0.0428433 1.85 0.00500011L2 0H9.586ZM8 2H2V18H14V8H9.5C9.12712 7.99998 8.76761 7.86108 8.49158 7.61038C8.21555 7.35968 8.0428 7.01516 8.007 6.644L8 6.5V2ZM8.5 9C9.16304 9 9.79893 9.26339 10.2678 9.73223C10.7366 10.2011 11 10.837 11 11.5C11 12.163 10.7366 12.7989 10.2678 13.2678C9.79893 13.7366 9.16304 14 8.5 14H7V15C7 15.2652 6.89464 15.5196 6.70711 15.7071C6.51957 15.8946 6.26522 16 6 16C5.73478 16 5.48043 15.8946 5.29289 15.7071C5.10536 15.5196 5 15.2652 5 15V10.1C5 9.80826 5.11589 9.52847 5.32218 9.32218C5.52847 9.11589 5.80826 9 6.1 9H8.5ZM8.5 11H7V12H8.5C8.62495 12.0002 8.74545 11.9537 8.83778 11.8695C8.93012 11.7853 8.98759 11.6696 8.99888 11.5452C9.01017 11.4207 8.97446 11.2966 8.89878 11.1972C8.8231 11.0977 8.71295 11.0303 8.59 11.008L8.5 11ZM10 2.414V6H13.586L10 2.414Z" fill="currentColor"/>
</svg>
