<svg viewBox="0 0 28 29" fill="none" xmlns="http://www.w3.org/2000/svg">
<path d="M18.6693 18.0916C23.1772 18.0916 26.8326 14.4517 26.8326 9.96183C26.8326 5.472 23.1772 1.83337 18.6693 1.83337C14.1614 1.83337 10.5098 5.47329 10.5098 9.96183C10.5098 12.0414 11.4579 13.554 11.4579 13.554L1.58699 23.3835C1.14395 23.8253 0.52395 24.9723 1.58699 26.0315L2.72624 27.1655C3.16928 27.544 4.2827 28.0736 5.19333 27.1655L6.52374 25.8429C7.85158 27.1655 9.37057 26.4099 9.9402 25.653C10.8883 24.3303 9.75032 23.0064 9.75032 23.0064L10.1301 22.6279C11.9513 24.444 13.5465 23.3848 14.1162 22.6279C15.0655 21.3052 14.1162 19.9813 14.1162 19.9813C13.7364 19.2257 12.9769 19.2257 13.9263 18.2802L15.0655 17.1461C15.9762 17.9017 17.8491 18.0916 18.6719 18.0916H18.6693Z" stroke="currentColor" stroke-width="1.5" stroke-linejoin="round"/>
<path d="M21.5174 9.96309C21.5157 10.7165 21.2148 11.4384 20.681 11.9701C20.1471 12.5018 19.424 12.7997 18.6706 12.7983C17.9171 12.7997 17.194 12.5018 16.6602 11.9701C16.1263 11.4384 15.8255 10.7165 15.8237 9.96309C15.8244 9.58992 15.8986 9.22053 16.042 8.87603C16.1855 8.53152 16.3953 8.21864 16.6597 7.95524C16.9241 7.69185 17.2377 7.4831 17.5827 7.34092C17.9277 7.19874 18.2974 7.12591 18.6706 7.12659C19.0437 7.12591 19.4134 7.19874 19.7584 7.34092C20.1035 7.4831 20.4171 7.69185 20.6815 7.95524C20.9458 8.21864 21.1557 8.53152 21.2991 8.87603C21.4426 9.22053 21.5167 9.58992 21.5174 9.96309Z" stroke="currentColor" stroke-width="1.5"/>
</svg>
