<svg width="27" height="26" viewBox="0 0 27 26" fill="none" xmlns="http://www.w3.org/2000/svg">
<path fill-rule="evenodd" clip-rule="evenodd" d="M13.3333 14.8542C14.7036 14.8542 16.0178 14.3098 16.9867 13.3409C17.9557 12.372 18.5 11.0578 18.5 9.68751C18.5 8.31722 17.9557 7.00306 16.9867 6.03412C16.0178 5.06519 14.7036 4.52084 13.3333 4.52084C11.963 4.52084 10.6489 5.06519 9.67995 6.03412C8.71101 7.00306 8.16666 8.31722 8.16666 9.68751C8.16666 11.0578 8.71101 12.372 9.67995 13.3409C10.6489 14.3098 11.963 14.8542 13.3333 14.8542ZM13.3333 13.5625C13.8422 13.5625 14.3461 13.4623 14.8162 13.2675C15.2864 13.0728 15.7135 12.7874 16.0734 12.4275C16.4332 12.0677 16.7186 11.6405 16.9134 11.1704C17.1081 10.7003 17.2083 10.1964 17.2083 9.68751C17.2083 9.17864 17.1081 8.67475 16.9134 8.20461C16.7186 7.73448 16.4332 7.3073 16.0734 6.94747C15.7135 6.58764 15.2864 6.30221 14.8162 6.10748C14.3461 5.91274 13.8422 5.81251 13.3333 5.81251C12.3056 5.81251 11.32 6.22077 10.5933 6.94747C9.86659 7.67417 9.45833 8.6598 9.45833 9.68751C9.45833 10.7152 9.86659 11.7008 10.5933 12.4275C11.32 13.1543 12.3056 13.5625 13.3333 13.5625Z" fill="currentColor"/>
<path fill-rule="evenodd" clip-rule="evenodd" d="M26.25 12.9167C26.25 20.0505 20.4672 25.8333 13.3333 25.8333C6.19946 25.8333 0.416664 20.0505 0.416664 12.9167C0.416664 5.78279 6.19946 0 13.3333 0C20.4672 0 26.25 5.78279 26.25 12.9167ZM19.5527 22.7398C17.6936 23.9206 15.5358 24.5458 13.3333 24.5417C11.0783 24.5458 8.87131 23.8902 6.98414 22.6558C6.82914 22.4621 6.67199 22.2619 6.51269 22.0552C6.32791 21.8132 6.22825 21.5169 6.22916 21.2124C6.22916 20.5168 6.72904 19.9336 7.39748 19.8361C11.8182 19.1903 14.862 19.2458 19.2886 19.8587C19.609 19.9056 19.9017 20.0666 20.1128 20.3121C20.3239 20.5576 20.4392 20.8712 20.4375 21.195C20.4375 21.505 20.3309 21.8059 20.1385 22.041C19.94 22.2825 19.7447 22.5155 19.5527 22.7398ZM21.7195 20.9676C21.6161 19.7586 20.6984 18.7498 19.4655 18.5793C14.9344 17.9522 11.7672 17.8922 7.21083 18.558C5.97083 18.7389 5.05698 19.7567 4.94848 20.9689C2.86587 18.8061 1.70423 15.9192 1.70833 12.9167C1.70833 6.49644 6.9131 1.29167 13.3333 1.29167C19.7536 1.29167 24.9583 6.49644 24.9583 12.9167C24.9624 15.9186 23.8013 18.8049 21.7195 20.9676Z" fill="currentColor"/>
</svg>
