<svg width="34" height="34" viewBox="0 0 34 34" fill="none" xmlns="http://www.w3.org/2000/svg">
<path d="M15.772 9.705C15.8764 9.87205 15.9469 10.058 15.9794 10.2523C16.0119 10.4466 16.0059 10.6454 15.9616 10.8373C15.9173 11.0292 15.8356 11.2106 15.7213 11.3709C15.6069 11.5313 15.462 11.6676 15.295 11.772C13.4693 12.9091 12.019 14.5588 11.125 16.515C12.0278 16.4395 12.9324 16.6383 13.7204 17.0853C14.5084 17.5324 15.1432 18.2068 15.5416 19.0205C15.94 19.8342 16.0835 20.7492 15.9533 21.6458C15.8232 22.5424 15.4254 23.3788 14.8121 24.0456C14.1988 24.7125 13.3985 25.1786 12.5159 25.3832C11.6333 25.5877 10.7096 25.5211 9.86546 25.192C9.02136 24.8629 8.29624 24.2867 7.78498 23.5388C7.27372 22.7908 7.00013 21.906 7 21V20.9595C7.00163 20.8434 7.00663 20.7273 7.015 20.6115C7.0285 20.3865 7.0555 20.0715 7.108 19.6845C7.213 18.915 7.4185 17.8545 7.834 16.6635C8.662 14.2785 10.339 11.331 13.705 9.228C13.872 9.1236 14.058 9.05313 14.2523 9.0206C14.4466 8.98807 14.6454 8.99412 14.8373 9.03841C15.0292 9.08271 15.2106 9.16437 15.3709 9.27875C15.5313 9.39312 15.6676 9.53796 15.772 9.705ZM26.272 9.705C26.3764 9.87205 26.4469 10.058 26.4794 10.2523C26.5119 10.4466 26.5059 10.6454 26.4616 10.8373C26.4173 11.0292 26.3356 11.2106 26.2213 11.3709C26.1069 11.5313 25.962 11.6676 25.795 11.772C23.9693 12.9091 22.519 14.5588 21.625 16.515C22.5278 16.4395 23.4324 16.6383 24.2204 17.0853C25.0084 17.5324 25.6432 18.2068 26.0416 19.0205C26.44 19.8342 26.5835 20.7492 26.4533 21.6458C26.3232 22.5424 25.9254 23.3788 25.3121 24.0456C24.6988 24.7125 23.8985 25.1786 23.0159 25.3832C22.1333 25.5877 21.2096 25.5211 20.3655 25.192C19.5214 24.8629 18.7962 24.2867 18.285 23.5388C17.7737 22.7908 17.5001 21.906 17.5 21V20.9595C17.5016 20.8434 17.5066 20.7273 17.515 20.6115C17.5285 20.3865 17.5555 20.0715 17.608 19.6845C17.713 18.915 17.9185 17.8545 18.334 16.6635C19.162 14.2785 20.839 11.331 24.205 9.228C24.372 9.1236 24.558 9.05313 24.7523 9.0206C24.9466 8.98807 25.1454 8.99412 25.3373 9.03841C25.5292 9.08271 25.7106 9.16437 25.8709 9.27875C26.0313 9.39312 26.1676 9.53796 26.272 9.705Z" fill="currentColor"/>
</svg>
