<svg viewBox="0 0 25 25" fill="none" xmlns="http://www.w3.org/2000/svg">
<path d="M24.1022 10.7135C23.8655 10.7135 23.6385 10.6194 23.4711 10.4519C23.3037 10.2844 23.2097 10.0572 23.2097 9.82028V3.04952L15.8022 10.4634C15.6338 10.6261 15.4084 10.7162 15.1744 10.7141C14.9404 10.7121 14.7165 10.6181 14.5511 10.4525C14.3856 10.2869 14.2917 10.0629 14.2897 9.82868C14.2877 9.59447 14.3776 9.36884 14.5402 9.20037L21.9477 1.78648H15.1828C14.9461 1.78648 14.7191 1.69237 14.5517 1.52486C14.3843 1.35734 14.2903 1.13014 14.2903 0.89324C14.2903 0.656338 14.3843 0.429139 14.5517 0.261624C14.7191 0.0941089 14.9461 0 15.1828 0H24.1075C24.3442 0 24.5712 0.0941089 24.7386 0.261624C24.906 0.429139 25 0.656338 25 0.89324V9.82564C25 10.0625 24.906 10.2897 24.7386 10.4573C24.5712 10.6248 24.3442 10.7189 24.1075 10.7189L24.1022 10.7135ZM0.897829 14.2865C1.13453 14.2865 1.36153 14.3806 1.5289 14.5481C1.69628 14.7156 1.7903 14.9428 1.7903 15.1797V21.9505L9.19784 14.5366C9.36617 14.3739 9.59161 14.2838 9.82561 14.2859C10.0596 14.2879 10.2835 14.3819 10.4489 14.5475C10.6144 14.7131 10.7083 14.9371 10.7103 15.1713C10.7123 15.4055 10.6224 15.6312 10.4598 15.7996L3.05226 23.2135H9.81722C10.0539 23.2135 10.2809 23.3076 10.4483 23.4751C10.6157 23.6427 10.7097 23.8699 10.7097 24.1068C10.7097 24.3437 10.6157 24.5709 10.4483 24.7384C10.2809 24.9059 10.0539 25 9.81722 25H0.892475C0.655776 25 0.428771 24.9059 0.2614 24.7384C0.0940283 24.5709 0 24.3437 0 24.1068V15.1744C0 14.9375 0.0940283 14.7103 0.2614 14.5427C0.428771 14.3752 0.655776 14.2811 0.892475 14.2811L0.897829 14.2865Z" fill="currentColor"/>
</svg>
