<svg width="7" height="9" viewBox="0 0 7 9" fill="none" xmlns="http://www.w3.org/2000/svg">
<path d="M1.09621 1.41124L4.32121 4.62874L1.09621 7.84627C1.02591 7.91597 0.970117 7.99887 0.932037 8.09027C0.893967 8.18167 0.874356 8.27977 0.874356 8.37877C0.874356 8.47777 0.893967 8.57577 0.932037 8.66717C0.970116 8.75857 1.02591 8.84147 1.09621 8.91127C1.16593 8.98157 1.24888 9.03737 1.34028 9.07537C1.43167 9.11347 1.5297 9.13307 1.62871 9.13307C1.72772 9.13307 1.82575 9.11347 1.91714 9.07537C2.00854 9.03737 2.09149 8.98157 2.16121 8.91127L5.91121 5.16124C5.98151 5.09152 6.0373 5.00857 6.07538 4.91717C6.11346 4.82578 6.13306 4.72775 6.13306 4.62874C6.13306 4.52973 6.11346 4.4317 6.07538 4.34031C6.0373 4.24891 5.98151 4.16596 5.91121 4.09624L2.16121 0.346241C2.09128 0.276311 2.00826 0.220841 1.9169 0.182991C1.82553 0.145151 1.72761 0.125671 1.62871 0.125671C1.42898 0.125671 1.23744 0.205011 1.09621 0.346241C0.954977 0.487471 0.875637 0.679011 0.875637 0.878741C0.875637 1.07846 0.954977 1.27001 1.09621 1.41124Z" fill="currentColor"/>
</svg>
