<svg viewBox="0 0 60 60" fill="none" xmlns="http://www.w3.org/2000/svg">
<path d="M23.75 54.2125C25.7918 54.7375 27.8918 55.0021 30 55C43.8075 55 55 43.8075 55 30C55 16.1925 43.8075 5 30 5C16.1925 5 5 16.1925 5 30C5 30.845 5.04167 31.6783 5.125 32.5" stroke="currentColor" stroke-width="3.75" stroke-linecap="round" stroke-linejoin="round"/>
<path d="M20.0225 21.105H20M40 21.105H39.9775M37.5 40C35.338 38.374 32.7052 37.4964 30 37.5C27.725 37.5 25.5875 38.11 23.75 39.175M12.5525 35L7.15251 40.2075C6.46763 40.8722 5.92405 41.6684 5.55438 42.5483C5.18472 43.4282 4.99658 44.3737 5.00124 45.3281C5.00591 46.2825 5.2033 47.2262 5.58156 48.1024C5.95982 48.9787 6.51116 49.7695 7.20251 50.4275C10.1525 53.2225 14.9025 53.175 17.8025 50.3775C18.4954 49.7189 19.0471 48.9263 19.4241 48.0478C19.8011 47.1694 19.9955 46.2234 19.9955 45.2675C19.9955 44.3115 19.8011 43.3656 19.4241 42.4871C19.0471 41.6087 18.4954 40.8161 17.8025 40.1575L12.5525 35Z" stroke="currentColor" stroke-width="3.75" stroke-linecap="round" stroke-linejoin="round"/>
</svg>
