<svg viewBox="0 0 18 18" fill="none" xmlns="http://www.w3.org/2000/svg">
<path d="M10.0567 1.884C9.37904 1.60922 8.62095 1.60922 7.94324 1.884L2.31974 4.164C2.07752 4.26211 1.8701 4.4303 1.72406 4.64703C1.57801 4.86376 1.49999 5.11915 1.49999 5.3805V8.7C1.84949 8.5215 2.22749 8.391 2.62499 8.3175V5.8125L8.4375 8.073V15.582L8.61525 15.7605C8.778 15.9225 8.889 16.1167 8.94825 16.323C9.32788 16.3298 9.70496 16.2596 10.0567 16.1167L15.6802 13.8367C15.9226 13.7386 16.1301 13.5703 16.2761 13.3534C16.4222 13.1365 16.5001 12.881 16.5 12.6195V5.38125C16.5 5.1199 16.422 4.86451 16.2759 4.64778C16.1299 4.43105 15.9225 4.26286 15.6802 4.16475L10.0567 1.884ZM8.36624 2.9265C8.77269 2.7618 9.2273 2.7618 9.63375 2.9265L14.5777 4.9305L12.5752 5.70375L6.93075 3.5085L8.36624 2.9265ZM5.41125 4.125L11.0182 6.306L9.00075 7.0845L3.44325 4.923L5.41125 4.125ZM15.258 12.795L9.63375 15.075L9.5625 15.1012V8.07375L15.375 5.82975V12.6202C15.375 12.6576 15.3639 12.6941 15.3431 12.7251C15.3222 12.7561 15.2926 12.7809 15.258 12.795ZM3.375 15.75C4.07572 15.75 4.75908 15.5319 5.33025 15.126L7.29 17.085C7.34149 17.1403 7.40359 17.1846 7.47259 17.2153C7.54159 17.2461 7.61608 17.2626 7.6916 17.2639C7.76713 17.2653 7.84215 17.2514 7.91219 17.2231C7.98223 17.1948 8.04586 17.1527 8.09927 17.0993C8.15269 17.0459 8.1948 16.9822 8.22309 16.9122C8.25138 16.8422 8.26527 16.7671 8.26394 16.6916C8.26261 16.6161 8.24607 16.5416 8.21533 16.4726C8.18459 16.4036 8.14026 16.3415 8.08499 16.29L6.126 14.3302C6.56431 13.7136 6.7827 12.9675 6.74612 12.2118C6.70953 11.4561 6.42009 10.7346 5.92426 10.1632C5.42842 9.5917 4.75496 9.20341 4.01197 9.06064C3.26899 8.91786 2.49957 9.02887 1.82725 9.37585C1.15492 9.72282 0.618681 10.2856 0.304607 10.974C-0.00946792 11.6623 -0.0831587 12.4361 0.095364 13.1714C0.273887 13.9066 0.694268 14.5605 1.28902 15.0281C1.88378 15.4958 2.61841 15.75 3.375 15.75ZM3.375 14.625C2.77826 14.625 2.20596 14.3879 1.784 13.966C1.36205 13.544 1.12499 12.9717 1.12499 12.375C1.12499 11.7783 1.36205 11.206 1.784 10.784C2.20596 10.362 2.77826 10.125 3.375 10.125C3.97173 10.125 4.54403 10.362 4.96599 10.784C5.38794 11.206 5.625 11.7783 5.625 12.375C5.625 12.9717 5.38794 13.544 4.96599 13.966C4.54403 14.3879 3.97173 14.625 3.375 14.625Z" fill="white"/>
</svg>
