<svg width="18" height="18" viewBox="0 0 18 18" fill="none" xmlns="http://www.w3.org/2000/svg">
<path d="M8.99851 1.5C6.74251 1.5 5.28001 3.01425 3.55051 3.56625C2.84701 3.79125 2.49526 3.903 2.35276 4.06125C2.21026 4.21875 2.16901 4.4505 2.08576 4.9125C1.19326 9.8595 3.14326 14.433 7.79326 16.2135C8.29201 16.4048 8.54176 16.5 9.00076 16.5C9.45976 16.5 9.71026 16.404 10.2098 16.2128C14.859 14.433 16.8068 9.8595 15.9143 4.9125C15.831 4.4505 15.789 4.21875 15.6465 4.0605C15.504 3.90225 15.153 3.7905 14.4495 3.56625C12.7193 3.01425 11.2545 1.5 8.99851 1.5Z" stroke="white" stroke-width="1.125" stroke-linecap="round" stroke-linejoin="round"/>
<path d="M7.68751 7.46923C7.68751 7.42423 7.69351 7.16473 7.69501 6.83923C7.69501 6.54073 7.66951 6.25423 7.81201 5.99173C8.34451 4.93123 9.87451 5.03923 10.2525 6.11923C10.3178 6.29698 10.3223 6.57823 10.32 6.83923C10.3178 7.17148 10.3245 7.46923 10.3245 7.46923M7.75276 7.78498C6.94276 7.78498 6.53776 8.36998 6.44776 8.72998C6.35776 9.08998 6.35776 10.395 6.41176 10.935C6.59176 11.61 7.04176 11.889 7.48276 11.979C7.88776 12.015 9.59776 12.0015 10.0928 12.0015C10.8128 12.015 11.3528 11.745 11.5778 10.935C11.6228 10.665 11.6678 9.17998 11.5553 8.72998C11.3168 8.00998 10.7228 7.78498 10.2728 7.78498H7.75276Z" stroke="white" stroke-width="1.125" stroke-linecap="round" stroke-linejoin="round"/>
</svg>
