<svg width="9" height="14" viewBox="0 0 9 14" fill="none" xmlns="http://www.w3.org/2000/svg">
<path d="M4.16649 0C4.38748 4.71978e-05 4.59941 0.0878757 4.75565 0.244167L8.08899 3.5775C8.24079 3.73467 8.32478 3.94517 8.32288 4.16367C8.32099 4.38216 8.23334 4.59118 8.07884 4.74568C7.92433 4.90019 7.71532 4.98783 7.49682 4.98973C7.27833 4.99163 7.06782 4.90763 6.91066 4.75583L4.16649 2.01167L1.42232 4.75583C1.26515 4.90763 1.05465 4.99163 0.836155 4.98973C0.617657 4.98783 0.408647 4.90019 0.25414 4.74568C0.0996331 4.59118 0.0119921 4.38216 0.0100935 4.16367C0.00819477 3.94517 0.0921904 3.73467 0.243989 3.5775L3.57732 0.244167C3.73357 0.0878757 3.94549 4.71978e-05 4.16649 0ZM0.243989 8.5775C0.400262 8.42127 0.612185 8.33351 0.833155 8.33351C1.05413 8.33351 1.26605 8.42127 1.42232 8.5775L4.16649 11.3217L6.91066 8.5775C7.06782 8.4257 7.27833 8.34171 7.49682 8.34361C7.71532 8.3455 7.92433 8.43314 8.07884 8.58765C8.23334 8.74216 8.32099 8.95117 8.32288 9.16967C8.32478 9.38816 8.24079 9.59866 8.08899 9.75583L4.75565 13.0892C4.59938 13.2454 4.38746 13.3332 4.16649 13.3332C3.94552 13.3332 3.7336 13.2454 3.57732 13.0892L0.243989 9.75583C0.0877629 9.59956 0 9.38764 0 9.16667C0 8.9457 0.0877629 8.73377 0.243989 8.5775Z" fill="currentColor"/>
</svg>
