<svg width="6" height="10" viewBox="0 0 6 10" fill="none" xmlns="http://www.w3.org/2000/svg">
<path d="M0.22944 0.220115C0.08253 0.361098 4.52696e-07 0.552285 4.43982e-07 0.751634C4.35268e-07 0.950983 0.08253 1.14217 0.22944 1.28315L4.10846 5.00454L0.229439 8.72592C0.0866929 8.86771 0.00770625 9.05762 0.00949199 9.25474C0.0112773 9.45186 0.0936919 9.64042 0.238985 9.7798C0.384278 9.91919 0.580825 9.99826 0.786294 9.99997C0.991761 10.0017 1.18971 9.92591 1.33751 9.78896L5.77056 5.53606C5.91747 5.39508 6 5.20389 6 5.00454C6 4.80519 5.91747 4.614 5.77056 4.47302L1.33751 0.220115C1.19055 0.0791754 0.991267 -2.18939e-07 0.783473 -2.28022e-07C0.57568 -2.37105e-07 0.376394 0.0791754 0.22944 0.220115Z" fill="#787878"/>
</svg>
