<svg viewBox="0 0 25 25" fill="none" xmlns="http://www.w3.org/2000/svg">
<path d="M4.33333 23C3.69167 23 3.14256 22.7717 2.686 22.3152C2.22944 21.8586 2.00078 21.3091 2 20.6667V4.33333C2 3.69167 2.22867 3.14256 2.686 2.686C3.14333 2.22944 3.69244 2.00078 4.33333 2H20.6667C21.3083 2 21.8578 2.22867 22.3152 2.686C22.7725 3.14333 23.0008 3.69244 23 4.33333V20.6667C23 21.3083 22.7717 21.8578 22.3152 22.3152C21.8586 22.7725 21.3091 23.0008 20.6667 23H4.33333ZM4.33333 20.6667H20.6667V4.33333H4.33333V20.6667ZM7.83333 10.1667C7.50278 10.1667 7.22589 10.2787 7.00267 10.5027C6.77944 10.7267 6.66744 11.0036 6.66667 11.3333V17.1667C6.66667 17.4972 6.77867 17.7745 7.00267 17.9985C7.22667 18.2225 7.50355 18.3341 7.83333 18.3333C8.16311 18.3326 8.44039 18.2206 8.66517 17.9973C8.88994 17.7741 9.00155 17.4972 9 17.1667V11.3333C9 11.0028 8.888 10.7259 8.664 10.5027C8.44 10.2794 8.16311 10.1674 7.83333 10.1667ZM12.5 6.66667C12.1694 6.66667 11.8926 6.77867 11.6693 7.00267C11.4461 7.22667 11.3341 7.50355 11.3333 7.83333V17.1667C11.3333 17.4972 11.4453 17.7745 11.6693 17.9985C11.8933 18.2225 12.1702 18.3341 12.5 18.3333C12.8298 18.3326 13.1071 18.2206 13.3318 17.9973C13.5566 17.7741 13.6682 17.4972 13.6667 17.1667V7.83333C13.6667 7.50278 13.5547 7.22589 13.3307 7.00267C13.1067 6.77944 12.8298 6.66744 12.5 6.66667ZM17.1667 13.6667C16.8361 13.6667 16.5592 13.7787 16.336 14.0027C16.1128 14.2267 16.0008 14.5036 16 14.8333V17.1667C16 17.4972 16.112 17.7745 16.336 17.9985C16.56 18.2225 16.8369 18.3341 17.1667 18.3333C17.4964 18.3326 17.7737 18.2206 17.9985 17.9973C18.2233 17.7741 18.3349 17.4972 18.3333 17.1667V14.8333C18.3333 14.5028 18.2213 14.2259 17.9973 14.0027C17.7733 13.7794 17.4964 13.6674 17.1667 13.6667Z" fill="currentColor"/>
</svg>
