<svg viewBox="0 0 20 20" fill="none" xmlns="http://www.w3.org/2000/svg">
<path fill-rule="evenodd" clip-rule="evenodd" d="M12.1333 2.62164L17.4375 7.92498L8.30417 17.0583C7.59825 17.7478 6.64904 18.1312 5.66231 18.1255C4.67558 18.1198 3.73086 17.7254 3.03297 17.0278C2.33507 16.3303 1.94023 15.3857 1.93406 14.399C1.92789 13.4123 2.31088 12.4629 3 11.7566L12.1333 2.62331V2.62164ZM12.1333 4.97914L4.18 12.9333C3.80051 13.3262 3.59052 13.8525 3.59527 14.3987C3.60001 14.945 3.81911 15.4675 4.20538 15.8538C4.59165 16.24 5.11417 16.4591 5.66042 16.4639C6.20666 16.4686 6.73292 16.2586 7.12584 15.8791L15.0808 7.92414L12.135 4.97831L12.1333 4.97914Z" fill="currentColor"/>
<path fill-rule="evenodd" clip-rule="evenodd" d="M12.7958 10.44C12.1808 10.2717 11.3258 10.2258 10.3133 10.7317C8.86667 11.455 7.53833 11.5167 6.58333 11.4C6.19587 11.3544 5.81396 11.2701 5.44333 11.1483C5.29201 11.0971 5.14323 11.0387 4.9975 10.9733L4.9875 10.9692L4.98416 10.9675H4.9825C4.9825 10.9667 4.98083 10.9658 5.41666 10.2175L5.85166 9.46749L5.84916 9.46665L5.85583 9.46999L5.90333 9.48998C5.94889 9.50998 6.02083 9.53665 6.11916 9.56999C6.31416 9.63415 6.6025 9.71165 6.95833 9.75499C7.66917 9.84165 8.63333 9.79415 9.68666 9.26749C11.1742 8.52415 12.4783 8.58749 13.3975 8.83915C13.8525 8.96415 14.2142 9.13582 14.465 9.27665C14.6059 9.35698 14.7419 9.44546 14.8725 9.54165L14.8808 9.54915L14.885 9.55165L14.8858 9.55332L14.3183 10.2175C13.7492 10.8808 13.7492 10.8817 13.75 10.8817L13.7508 10.8825L13.7525 10.8842L13.7483 10.8808C13.6764 10.8297 13.6019 10.7824 13.525 10.7392C13.2946 10.6109 13.0499 10.5105 12.7958 10.44ZM10.6608 2.32748C10.8171 2.17126 11.029 2.0835 11.25 2.0835C11.471 2.0835 11.6829 2.17126 11.8392 2.32748L17.7317 8.21999C17.8835 8.37715 17.9675 8.58766 17.9656 8.80615C17.9637 9.02465 17.876 9.23366 17.7215 9.38817C17.567 9.54267 17.358 9.63031 17.1395 9.63221C16.921 9.63411 16.7105 9.55012 16.5533 9.39832L10.6608 3.50665C10.5834 3.42926 10.5219 3.33735 10.4799 3.23619C10.438 3.13502 10.4164 3.02658 10.4164 2.91707C10.4164 2.80756 10.438 2.69912 10.4799 2.59795C10.5219 2.49679 10.5834 2.40488 10.6608 2.32748Z" fill="currentColor"/>
</svg>
