<svg viewBox="0 0 20 22" fill="none" xmlns="http://www.w3.org/2000/svg">
<path d="M7.41443 8.50064L5.08975 6.24084H14.4968C15.2858 6.24084 16.0412 6.5456 16.597 7.08593C17.1526 7.62601 17.4634 8.357 17.4634 9.11766V11.6191C17.4634 11.8536 17.5593 12.077 17.7275 12.2406C17.8956 12.4039 18.122 12.4945 18.3567 12.4945C18.5914 12.4945 18.8178 12.4039 18.9858 12.2406C19.1541 12.077 19.25 11.8536 19.25 11.6191V9.11766C19.25 6.55906 17.1113 4.49012 14.4968 4.49012H5.08975L6.99017 2.64273V2.66613L7.41752 2.23601C7.58105 2.07143 7.6728 1.8495 7.67072 1.61769C7.66865 1.3859 7.57296 1.16563 7.40659 1.0039C7.24046 0.842406 7.01716 0.751992 6.78514 0.750033C6.55313 0.748073 6.32832 0.834695 6.1594 0.993288L6.15938 0.99326L6.15626 0.996286L2.29636 4.74846L2.29634 4.74849C2.12812 4.91207 2.03227 5.13542 2.03227 5.36986C2.03227 5.60429 2.12812 5.82765 2.29634 5.99122L2.29636 5.99125L6.15626 9.74343L6.15624 9.74345L6.1594 9.74642C6.32832 9.90502 6.55313 9.99164 6.78514 9.98968C7.01716 9.98772 7.24046 9.89731 7.40659 9.73581C7.57296 9.57409 7.66865 9.35382 7.67072 9.12202C7.6728 8.89021 7.58105 8.66828 7.41752 8.5037L7.41755 8.50367L7.41443 8.50064ZM12.5856 13.4994L14.9102 15.7592H5.50322C4.71418 15.7592 3.95884 15.4544 3.40301 14.9141C2.84741 14.374 2.53663 13.643 2.53663 12.8823V10.3809V10.3721C2.53663 10.1377 2.44075 9.91426 2.27247 9.75068C2.10443 9.58733 1.87799 9.49677 1.64332 9.49677C1.40864 9.49677 1.1822 9.58733 1.01417 9.75068C0.845887 9.91426 0.75 10.1377 0.75 10.3721V12.8736C0.75 15.4322 2.88866 17.5011 5.50322 17.5011H14.9102L12.5856 19.7609L12.5855 19.7609L12.5825 19.764C12.419 19.9286 12.3272 20.1505 12.3293 20.3823C12.3313 20.6141 12.427 20.8344 12.5934 20.9961C12.7595 21.1576 12.9828 21.248 13.2149 21.25C13.4469 21.2519 13.6717 21.1653 13.8406 21.0067L13.8406 21.0067L13.8437 21.0037L17.7036 17.2515L17.7037 17.2515C17.8719 17.0879 17.9677 16.8646 17.9677 16.6301C17.9677 16.3957 17.8719 16.1724 17.7037 16.0088L17.7036 16.0087L13.8437 12.2566L13.8438 12.2565L13.8406 12.2536C13.6717 12.095 13.4469 12.0084 13.2149 12.0103C12.9828 12.0123 12.7595 12.1027 12.5934 12.2642C12.427 12.4259 12.3313 12.6462 12.3293 12.878C12.3272 13.1098 12.419 13.3317 12.5825 13.4963L12.5825 13.4963L12.5856 13.4994Z" fill="white" stroke="white" stroke-width="0.5"/>
</svg>
