<svg width="18" height="18" viewBox="0 0 24 24" fill="none" xmlns="http://www.w3.org/2000/svg">
<path fill-rule="evenodd" clip-rule="evenodd" d="M7.934 2H16.066C16.952 2 17.716 2 18.328 2.082C18.983 2.17 19.612 2.369 20.121 2.879C20.631 3.389 20.83 4.017 20.918 4.672C21 5.284 21 6.048 21 6.934V7.95C21 8.21522 20.8946 8.46957 20.7071 8.65711C20.5196 8.84464 20.2652 8.95 20 8.95C19.7348 8.95 19.4804 8.84464 19.2929 8.65711C19.1054 8.46957 19 8.21522 19 7.95V7C19 6.029 18.998 5.401 18.936 4.939C18.877 4.505 18.783 4.369 18.707 4.293C18.631 4.217 18.495 4.123 18.061 4.064C17.6 4.002 16.971 4 16 4H13V21C13 21.2652 12.8946 21.5196 12.7071 21.7071C12.5196 21.8946 12.2652 22 12 22C11.7348 22 11.4804 21.8946 11.2929 21.7071C11.1054 21.5196 11 21.2652 11 21V4H8C7.029 4 6.401 4.002 5.939 4.064C5.505 4.123 5.369 4.217 5.293 4.293C5.217 4.369 5.123 4.505 5.064 4.939C5.002 5.4 5 6.029 5 7V7.95C5 8.21522 4.89464 8.46957 4.70711 8.65711C4.51957 8.84464 4.26522 8.95 4 8.95C3.73478 8.95 3.48043 8.84464 3.29289 8.65711C3.10536 8.46957 3 8.21522 3 7.95V6.934C3 6.048 3 5.284 3.082 4.672C3.17 4.017 3.369 3.388 3.879 2.879C4.389 2.369 5.017 2.17 5.672 2.082C6.284 2 7.048 2 7.934 2Z" fill="currentColor"/>
<path d="M7 21H17" stroke="currentColor" stroke-width="2" stroke-linecap="round" stroke-linejoin="round"/>
</svg>
