<svg width="9" height="6" viewBox="0 0 9 6" fill="none" xmlns="http://www.w3.org/2000/svg">
<path d="M1.28557 5.03685L4.50307 1.81185L7.7206 5.03685C7.7903 5.10715 7.8732 5.16294 7.9646 5.20102C8.056 5.23909 8.1541 5.2587 8.2531 5.2587C8.3521 5.2587 8.4501 5.23909 8.5415 5.20102C8.6329 5.16294 8.7158 5.10715 8.7856 5.03685C8.8559 4.96713 8.9117 4.88418 8.9497 4.79278C8.9878 4.70139 9.0074 4.60336 9.0074 4.50435C9.0074 4.40534 8.9878 4.30731 8.9497 4.21592C8.9117 4.12452 8.8559 4.04157 8.7856 3.97185L5.03557 0.22185C4.96585 0.15155 4.8829 0.0957599 4.7915 0.0576799C4.70011 0.0195999 4.60208 0 4.50307 0C4.40406 0 4.30603 0.0195999 4.21464 0.0576799C4.12324 0.0957599 4.04029 0.15155 3.97057 0.22185L0.22057 3.97185C0.15064 4.04178 0.0951701 4.1248 0.0573201 4.21616C0.0194801 4.30753 0 4.40545 0 4.50435C0 4.70408 0.0793401 4.89562 0.22057 5.03685C0.3618 5.17808 0.55334 5.25742 0.75307 5.25742C0.95279 5.25742 1.14434 5.17808 1.28557 5.03685Z" fill="currentColor"/>
</svg>
