<svg width="34" height="34" viewBox="0 0 34 34" fill="none" xmlns="http://www.w3.org/2000/svg">
<path d="M23.4993 23C23.8845 23.0002 24.2549 23.1486 24.5336 23.4144C24.8124 23.6802 24.9783 24.0431 24.9968 24.4279C25.0153 24.8127 24.8851 25.1898 24.6331 25.4812C24.3811 25.7726 24.0267 25.9558 23.6433 25.993L23.4993 26H11.4993C11.114 25.9998 10.7437 25.8514 10.4649 25.5856C10.1861 25.3198 10.0202 24.9569 10.0017 24.5721C9.98322 24.1873 10.1135 23.8102 10.3654 23.5188C10.6174 23.2274 10.9718 23.0442 11.3553 23.007L11.4993 23H23.4993ZM22.4993 7C22.8721 7.00002 23.2317 7.13892 23.5077 7.38962C23.7837 7.64032 23.9565 7.98484 23.9923 8.356L23.9993 8.5V15.5C24.0006 17.2046 23.3322 18.8415 22.1382 20.0581C20.9442 21.2746 19.3201 21.9735 17.6158 22.004C15.9114 22.0346 14.2633 21.3944 13.0265 20.2214C11.7896 19.0485 11.063 17.4366 11.0033 15.733L10.9993 15.5V8.5C10.9994 8.11478 11.1478 7.74441 11.4137 7.46561C11.6795 7.18682 12.0424 7.02099 12.4272 7.00248C12.8119 6.98396 13.1891 7.11419 13.4805 7.36618C13.7718 7.61816 13.9551 7.97258 13.9923 8.356L13.9993 8.5V15.5C13.9979 16.4125 14.353 17.2894 14.9889 17.9439C15.6247 18.5984 16.4911 18.9787 17.4032 19.0037C18.3154 19.0288 19.2013 18.6966 19.872 18.078C20.5428 17.4593 20.9455 16.6032 20.9943 15.692L20.9993 15.5V8.5C20.9993 8.10218 21.1573 7.72064 21.4386 7.43934C21.7199 7.15804 22.1014 7 22.4993 7Z" fill="currentColor"/>
</svg>
