<svg width="11" height="15" viewBox="0 0 11 15" fill="none" xmlns="http://www.w3.org/2000/svg">
<path d="M2.25 0H8.25C8.84674 0 9.41903 0.237053 9.84099 0.65901C10.2629 1.08097 10.5 1.65326 10.5 2.25V13.5C10.4999 13.7908 10.4153 14.0753 10.2565 14.3189C10.0977 14.5625 9.8715 14.7547 9.60544 14.872C9.33938 14.9894 9.04495 15.0269 8.75796 14.98C8.47098 14.9331 8.20382 14.8037 7.989 14.6077L5.7555 12.57C5.61733 12.4439 5.43704 12.374 5.25 12.374C5.06296 12.374 4.88267 12.4439 4.7445 12.57L2.511 14.6077C2.29618 14.8037 2.02902 14.9331 1.74204 14.98C1.45505 15.0269 1.16062 14.9894 0.89456 14.872C0.628504 14.7547 0.402301 14.5625 0.24348 14.3189C0.0846588 14.0753 6.7267e-05 13.7908 0 13.5L0 2.25C0 1.65326 0.237053 1.08097 0.65901 0.65901C1.08097 0.237053 1.65326 0 2.25 0Z" fill="currentColor"/>
</svg>
