<svg width="34" height="34" viewBox="0 0 34 34" fill="none" xmlns="http://www.w3.org/2000/svg">
<path d="M12.5 11.75H26M12.5 17H26M12.5 22.25H26" stroke="currentColor" stroke-width="2.25" stroke-linecap="round" stroke-linejoin="round"/>
<path d="M8.75 12.5C9.16421 12.5 9.5 12.1642 9.5 11.75C9.5 11.3358 9.16421 11 8.75 11C8.33579 11 8 11.3358 8 11.75C8 12.1642 8.33579 12.5 8.75 12.5Z" stroke="currentColor" stroke-width="1.5" stroke-linecap="round" stroke-linejoin="round"/>
<path d="M8.75 17.75C9.16421 17.75 9.5 17.4142 9.5 17C9.5 16.5858 9.16421 16.25 8.75 16.25C8.33579 16.25 8 16.5858 8 17C8 17.4142 8.33579 17.75 8.75 17.75Z" stroke="currentColor" stroke-width="1.5" stroke-linecap="round" stroke-linejoin="round"/>
<path d="M8.75 23C9.16421 23 9.5 22.6642 9.5 22.25C9.5 21.8358 9.16421 21.5 8.75 21.5C8.33579 21.5 8 21.8358 8 22.25C8 22.6642 8.33579 23 8.75 23Z" stroke="currentColor" stroke-width="1.5" stroke-linecap="round" stroke-linejoin="round"/>
</svg>
