<svg width="27" height="28" viewBox="0 0 27 28" fill="none" xmlns="http://www.w3.org/2000/svg">
<path d="M13.1781 17.7916C15.3182 17.7916 17.0531 16.0567 17.0531 13.9166C17.0531 11.7765 15.3182 10.0416 13.1781 10.0416C11.038 10.0416 9.30307 11.7765 9.30307 13.9166C9.30307 16.0567 11.038 17.7916 13.1781 17.7916Z" stroke="currentColor" stroke-width="1.5"/>
<path d="M15.4579 1.19633C14.9838 1 14.3819 1 13.1781 1C11.9742 1 11.3723 1 10.8983 1.19633C10.5846 1.32616 10.2997 1.51653 10.0596 1.75656C9.81961 1.99659 9.62924 2.28157 9.49941 2.59521C9.38057 2.88325 9.33278 3.22038 9.3147 3.70992C9.30629 4.06374 9.20827 4.40965 9.02981 4.71529C8.85135 5.02093 8.59828 5.27631 8.29428 5.45754C7.98532 5.63033 7.63758 5.72191 7.28359 5.72372C6.92961 5.72553 6.58095 5.6375 6.27024 5.46788C5.83624 5.23796 5.52236 5.11138 5.21107 5.07004C4.53207 4.98075 3.84539 5.16473 3.30199 5.58154C2.89641 5.89542 2.59416 6.41596 1.99224 7.45833C1.39032 8.50071 1.08807 9.02125 1.0222 9.53146C0.977809 9.86788 1.00014 10.2097 1.0879 10.5375C1.17566 10.8653 1.32715 11.1726 1.5337 11.4418C1.72486 11.6898 1.99224 11.8978 2.40686 12.1587C3.01782 12.5423 3.41049 13.1959 3.41049 13.9167C3.41049 14.6374 3.01782 15.291 2.40686 15.6733C1.99224 15.9355 1.72357 16.1435 1.5337 16.3915C1.32715 16.6607 1.17566 16.968 1.0879 17.2958C1.00014 17.6236 0.977809 17.9655 1.0222 18.3019C1.08936 18.8108 1.39032 19.3326 1.99095 20.375C2.59416 21.4174 2.89511 21.9379 3.30199 22.2518C3.57122 22.4583 3.8785 22.6098 4.20629 22.6976C4.53408 22.7854 4.87595 22.8077 5.21236 22.7633C5.52236 22.722 5.83624 22.5954 6.27024 22.3655C6.58095 22.1958 6.92961 22.1078 7.28359 22.1096C7.63758 22.1114 7.98532 22.203 8.29428 22.3758C8.91816 22.7375 9.28886 23.4027 9.3147 24.1234C9.33278 24.6143 9.37928 24.9501 9.49941 25.2381C9.62924 25.5518 9.81961 25.8367 10.0596 26.0768C10.2997 26.3168 10.5846 26.5072 10.8983 26.637C11.3723 26.8333 11.9742 26.8333 13.1781 26.8333C14.3819 26.8333 14.9838 26.8333 15.4579 26.637C15.7715 26.5072 16.0565 26.3168 16.2965 26.0768C16.5365 25.8367 16.7269 25.5518 16.8567 25.2381C16.9756 24.9501 17.0234 24.6143 17.0414 24.1234C17.0673 23.4027 17.438 22.7362 18.0619 22.3758C18.3708 22.203 18.7186 22.1114 19.0726 22.1096C19.4265 22.1078 19.7752 22.1958 20.0859 22.3655C20.5199 22.5954 20.8338 22.722 21.1438 22.7633C21.4802 22.8077 21.8221 22.7854 22.1499 22.6976C22.4776 22.6098 22.7849 22.4583 23.0542 22.2518C23.461 21.9392 23.762 21.4174 24.3639 20.375C24.9658 19.3326 25.2681 18.8121 25.3339 18.3019C25.3783 17.9655 25.356 17.6236 25.2682 17.2958C25.1805 16.968 25.029 16.6607 24.8224 16.3915C24.6313 16.1435 24.3639 15.9355 23.9493 15.6746C23.6469 15.4904 23.3963 15.2325 23.2207 14.9251C23.0452 14.6176 22.9506 14.2707 22.9457 13.9167C22.9457 13.1959 23.3383 12.5423 23.9493 12.16C24.3639 11.8978 24.6326 11.6898 24.8224 11.4418C25.029 11.1726 25.1805 10.8653 25.2682 10.5375C25.356 10.2097 25.3783 9.86788 25.3339 9.53146C25.2668 9.02254 24.9658 8.50071 24.3652 7.45833C23.762 6.41596 23.461 5.89542 23.0542 5.58154C22.7849 5.37499 22.4776 5.22351 22.1499 5.13574C21.8221 5.04798 21.4802 5.02565 21.1438 5.07004C20.8338 5.11138 20.5199 5.23796 20.0846 5.46788C19.7741 5.63727 19.4256 5.72517 19.0719 5.72336C18.7182 5.72155 18.3707 5.6301 18.0619 5.45754C17.7579 5.27631 17.5048 5.02093 17.3263 4.71529C17.1479 4.40965 17.0499 4.06374 17.0414 3.70992C17.0234 3.21908 16.9769 2.88325 16.8567 2.59521C16.7269 2.28157 16.5365 1.99659 16.2965 1.75656C16.0565 1.51653 15.7715 1.32616 15.4579 1.19633Z" stroke="currentColor" stroke-width="1.5"/>
</svg>
