<svg viewBox="0 0 26 25" fill="none" xmlns="http://www.w3.org/2000/svg">
<path d="M19.5 21.75C19.5 19.4514 18.5869 17.247 16.9616 15.6217C15.3363 13.9964 13.1319 13.0833 10.8333 13.0833C8.53478 13.0833 6.33038 13.9964 4.70506 15.6217C3.07975 17.247 2.16666 19.4514 2.16666 21.75" stroke="currentColor" stroke-width="1.66667" stroke-linecap="round" stroke-linejoin="round"/>
<path d="M10.8333 13.0833C13.8249 13.0833 16.25 10.6582 16.25 7.66667C16.25 4.67512 13.8249 2.25 10.8333 2.25C7.84178 2.25 5.41666 4.67512 5.41666 7.66667C5.41666 10.6582 7.84178 13.0833 10.8333 13.0833Z" stroke="currentColor" stroke-width="1.66667" stroke-linecap="round" stroke-linejoin="round"/>
<path d="M23.8333 20.6667C23.8333 17.0159 21.6666 13.625 19.5 12C20.2122 11.4657 20.7817 10.764 21.1581 9.95715C21.5345 9.15027 21.7062 8.26304 21.658 7.37398C21.6098 6.48492 21.3432 5.62145 20.8817 4.85999C20.4203 4.09853 19.7783 3.46256 19.0125 3.00836" stroke="currentColor" stroke-width="1.66667" stroke-linecap="round" stroke-linejoin="round"/>
</svg>
