<svg width="31" height="38" viewBox="0 0 31 38" fill="none" xmlns="http://www.w3.org/2000/svg">
<path d="M15.5 30.3333V19M15.5 19L9.71429 22.7778M15.5 19L21.2857 22.7778M17.4286 2H8.17143C6.01143 2 4.93143 2 4.106 2.41178C3.38026 2.77396 2.79022 3.35186 2.42043 4.06267C2 4.87111 2 5.92889 2 8.04444V29.9556C2 32.0711 2 33.1289 2.42043 33.9373C2.79022 34.6481 3.38026 35.226 4.106 35.5882C4.9295 36 6.0095 36 8.16564 36H22.8344C24.9905 36 26.0686 36 26.8921 35.5882C27.6191 35.2256 28.2093 34.6476 28.5796 33.9373C29 33.1289 29 32.0749 29 29.9631V13.3333M17.4286 2C17.9801 2.00567 18.3273 2.02644 18.6609 2.10389C19.0569 2.19833 19.4285 2.34944 19.7756 2.55722C20.1652 2.79144 20.4989 3.11822 21.1642 3.77178L27.1929 9.67456C27.8602 10.3281 28.1919 10.653 28.4311 11.0346C28.6432 11.3758 28.7975 11.7397 28.8939 12.1263C28.9711 12.4531 28.9942 12.795 29 13.3333M17.4286 2V7.28889C17.4286 9.40444 17.4286 10.4622 17.849 11.2707C18.2188 11.9815 18.8088 12.5594 19.5346 12.9216C20.3581 13.3333 21.4381 13.3333 23.5942 13.3333H29" stroke="currentColor" stroke-width="3.33333" stroke-linecap="round" stroke-linejoin="round"/>
</svg>
