<svg width="22" height="14" viewBox="0 0 22 14" fill="none" xmlns="http://www.w3.org/2000/svg">
<path d="M15 8.00002L20.223 11.482C20.2983 11.5321 20.3858 11.5609 20.4761 11.5652C20.5664 11.5695 20.6563 11.5493 20.736 11.5066C20.8157 11.4639 20.8824 11.4004 20.9289 11.3228C20.9754 11.2452 21 11.1565 21 11.066V2.87002C21 2.78204 20.9768 2.69562 20.9328 2.61947C20.8887 2.54332 20.8253 2.48014 20.7491 2.43632C20.6728 2.3925 20.5863 2.36958 20.4983 2.36988C20.4103 2.37017 20.324 2.39368 20.248 2.43802L15 5.50002" stroke="currentColor" stroke-width="2" stroke-linecap="round" stroke-linejoin="round"/>
<path d="M13 1H3C1.89543 1 1 1.89543 1 3V11C1 12.1046 1.89543 13 3 13H13C14.1046 13 15 12.1046 15 11V3C15 1.89543 14.1046 1 13 1Z" stroke="currentColor" stroke-width="2" stroke-linecap="round" stroke-linejoin="round"/>
</svg>
